%TF.GenerationSoftware,KiCad,Pcbnew,(6.0.6)*%
%TF.CreationDate,2022-07-28T15:05:17+07:00*%
%TF.ProjectId,_________________(__),1f3b3042-305f-43f4-903e-463541413e40,rev?*%
%TF.SameCoordinates,Original*%
%TF.FileFunction,Soldermask,Top*%
%TF.FilePolarity,Negative*%
%FSLAX46Y46*%
G04 Gerber Fmt 4.6, Leading zero omitted, Abs format (unit mm)*
G04 Created by KiCad (PCBNEW (6.0.6)) date 2022-07-28 15:05:17*
%MOMM*%
%LPD*%
G01*
G04 APERTURE LIST*
G04 Aperture macros list*
%AMRoundRect*
0 Rectangle with rounded corners*
0 $1 Rounding radius*
0 $2 $3 $4 $5 $6 $7 $8 $9 X,Y pos of 4 corners*
0 Add a 4 corners polygon primitive as box body*
4,1,4,$2,$3,$4,$5,$6,$7,$8,$9,$2,$3,0*
0 Add four circle primitives for the rounded corners*
1,1,$1+$1,$2,$3*
1,1,$1+$1,$4,$5*
1,1,$1+$1,$6,$7*
1,1,$1+$1,$8,$9*
0 Add four rect primitives between the rounded corners*
20,1,$1+$1,$2,$3,$4,$5,0*
20,1,$1+$1,$4,$5,$6,$7,0*
20,1,$1+$1,$6,$7,$8,$9,0*
20,1,$1+$1,$8,$9,$2,$3,0*%
%AMHorizOval*
0 Thick line with rounded ends*
0 $1 width*
0 $2 $3 position (X,Y) of the first rounded end (center of the circle)*
0 $4 $5 position (X,Y) of the second rounded end (center of the circle)*
0 Add line between two ends*
20,1,$1,$2,$3,$4,$5,0*
0 Add two circle primitives to create the rounded ends*
1,1,$1,$2,$3*
1,1,$1,$4,$5*%
G04 Aperture macros list end*
%ADD10RoundRect,0.052000X0.800000X0.800000X-0.800000X0.800000X-0.800000X-0.800000X0.800000X-0.800000X0*%
%ADD11C,1.704000*%
%ADD12O,1.704000X1.704000*%
%ADD13RoundRect,0.052000X0.525000X0.750000X-0.525000X0.750000X-0.525000X-0.750000X0.525000X-0.750000X0*%
%ADD14O,1.154000X1.604000*%
%ADD15RoundRect,0.052000X0.800000X-0.800000X0.800000X0.800000X-0.800000X0.800000X-0.800000X-0.800000X0*%
%ADD16C,1.604000*%
%ADD17C,2.304000*%
%ADD18RoundRect,0.052000X-1.414214X0.000000X0.000000X-1.414214X1.414214X0.000000X0.000000X1.414214X0*%
%ADD19HorizOval,2.104000X0.000000X0.000000X0.000000X0.000000X0*%
%ADD20C,2.354000*%
%ADD21C,1.859000*%
%ADD22C,3.304000*%
%ADD23RoundRect,0.052000X0.952500X1.000000X-0.952500X1.000000X-0.952500X-1.000000X0.952500X-1.000000X0*%
%ADD24O,2.009000X2.104000*%
%ADD25RoundRect,0.052000X-0.800000X0.800000X-0.800000X-0.800000X0.800000X-0.800000X0.800000X0.800000X0*%
%ADD26RoundRect,0.302001X-0.799999X-1.549999X0.799999X-1.549999X0.799999X1.549999X-0.799999X1.549999X0*%
%ADD27O,2.204000X3.704000*%
%ADD28RoundRect,0.052000X0.000000X1.414214X-1.414214X0.000000X0.000000X-1.414214X1.414214X0.000000X0*%
%ADD29HorizOval,2.104000X0.000000X0.000000X0.000000X0.000000X0*%
%ADD30C,2.504000*%
%ADD31RoundRect,0.301999X1.550001X-0.790001X1.550001X0.790001X-1.550001X0.790001X-1.550001X-0.790001X0*%
%ADD32O,3.704000X2.184000*%
%ADD33O,2.504000X2.504000*%
%ADD34RoundRect,0.052000X-1.150000X1.150000X-1.150000X-1.150000X1.150000X-1.150000X1.150000X1.150000X0*%
%ADD35C,2.404000*%
%ADD36RoundRect,0.052000X-0.800000X-0.800000X0.800000X-0.800000X0.800000X0.800000X-0.800000X0.800000X0*%
%ADD37C,3.700000*%
%ADD38RoundRect,0.552000X0.500000X-0.500000X0.500000X0.500000X-0.500000X0.500000X-0.500000X-0.500000X0*%
%ADD39C,2.104000*%
%ADD40RoundRect,0.052000X-0.525000X-0.750000X0.525000X-0.750000X0.525000X0.750000X-0.525000X0.750000X0*%
%ADD41C,2.604000*%
%ADD42RoundRect,0.052000X-1.000000X-1.000000X1.000000X-1.000000X1.000000X1.000000X-1.000000X1.000000X0*%
%ADD43C,1.104000*%
G04 APERTURE END LIST*
D10*
%TO.C,C7*%
X115000000Y-59000000D03*
D11*
X112500000Y-59000000D03*
%TD*%
%TO.C,R15*%
X58160000Y-105000000D03*
D12*
X48000000Y-105000000D03*
%TD*%
D11*
%TO.C,R19*%
X58160000Y-91000000D03*
D12*
X48000000Y-91000000D03*
%TD*%
D13*
%TO.C,DA2*%
X94040000Y-109000000D03*
D14*
X92770000Y-109000000D03*
X91500000Y-109000000D03*
%TD*%
D11*
%TO.C,C1*%
X95300000Y-81700000D03*
X95300000Y-86700000D03*
%TD*%
%TO.C,R20*%
X58160000Y-87500000D03*
D12*
X48000000Y-87500000D03*
%TD*%
D15*
%TO.C,C10*%
X102500000Y-109682380D03*
D11*
X102500000Y-107182380D03*
%TD*%
D16*
%TO.C,ZQ1*%
X80500000Y-70550000D03*
X80500000Y-75450000D03*
%TD*%
D11*
%TO.C,R21*%
X58160000Y-84000000D03*
D12*
X48000000Y-84000000D03*
%TD*%
D17*
%TO.C,X3*%
X39040000Y-88740000D03*
X36500000Y-88740000D03*
X39040000Y-86200000D03*
X36500000Y-86200000D03*
X39040000Y-83660000D03*
X36500000Y-83660000D03*
X39040000Y-81120000D03*
X36500000Y-81120000D03*
X39040000Y-78580000D03*
X36500000Y-78580000D03*
X39040000Y-76040000D03*
X36500000Y-76040000D03*
X39040000Y-73500000D03*
X36500000Y-73500000D03*
%TD*%
D15*
%TO.C,DD4*%
X61500000Y-44120000D03*
D12*
X64040000Y-44120000D03*
X66580000Y-44120000D03*
X69120000Y-44120000D03*
X69120000Y-36500000D03*
X66580000Y-36500000D03*
X64040000Y-36500000D03*
X61500000Y-36500000D03*
%TD*%
D11*
%TO.C,R18*%
X58160000Y-94500000D03*
D12*
X48000000Y-94500000D03*
%TD*%
D18*
%TO.C,VD2*%
X111964466Y-98964466D03*
D19*
X108428932Y-102500000D03*
X111964466Y-106035534D03*
X115500000Y-102500000D03*
%TD*%
D11*
%TO.C,R25*%
X151000000Y-31840000D03*
D12*
X151000000Y-42000000D03*
%TD*%
D20*
%TO.C,BAT1*%
X47500000Y-33350000D03*
D21*
X47500000Y-53350000D03*
%TD*%
D22*
%TO.C,REF\u002A\u002A*%
X163000000Y-109500000D03*
%TD*%
D23*
%TO.C,DA1*%
X108580000Y-79300000D03*
D24*
X106040000Y-79300000D03*
X103500000Y-79300000D03*
%TD*%
D25*
%TO.C,DD7*%
X92000000Y-63500000D03*
D12*
X89460000Y-63500000D03*
X86920000Y-63500000D03*
X86920000Y-71120000D03*
X89460000Y-71120000D03*
X92000000Y-71120000D03*
%TD*%
D15*
%TO.C,DD8*%
X95500000Y-54000000D03*
D12*
X98040000Y-54000000D03*
X100580000Y-54000000D03*
X103120000Y-54000000D03*
X103120000Y-46380000D03*
X100580000Y-46380000D03*
X98040000Y-46380000D03*
X95500000Y-46380000D03*
%TD*%
D22*
%TO.C,REF\u002A\u002A*%
X32000000Y-33500000D03*
%TD*%
D26*
%TO.C,X5*%
X143690000Y-108222500D03*
D27*
X151310000Y-108222500D03*
%TD*%
D28*
%TO.C,VD1*%
X115500000Y-69500000D03*
D29*
X111964466Y-65964466D03*
X108428932Y-69500000D03*
X111964466Y-73035534D03*
%TD*%
D30*
%TO.C,X1*%
X165000000Y-100305000D03*
X165000000Y-44425000D03*
D31*
X162500000Y-95225000D03*
D32*
X162500000Y-90145000D03*
X162500000Y-85065000D03*
X162500000Y-79985000D03*
X162500000Y-74905000D03*
X162500000Y-69825000D03*
X162500000Y-64745000D03*
X162500000Y-59665000D03*
X162500000Y-54585000D03*
X162500000Y-49505000D03*
%TD*%
D30*
%TO.C,R23*%
X139000000Y-32200000D03*
D33*
X139000000Y-44900000D03*
%TD*%
D34*
%TO.C,RS2*%
X127500000Y-49350000D03*
D35*
X121500000Y-51350000D03*
X121500000Y-63550000D03*
X133500000Y-63550000D03*
X133500000Y-51350000D03*
%TD*%
D10*
%TO.C,DD1*%
X76125000Y-103000000D03*
D12*
X76125000Y-100460000D03*
X76125000Y-97920000D03*
X76125000Y-95380000D03*
X76125000Y-92840000D03*
X76125000Y-90300000D03*
X76125000Y-87760000D03*
X76125000Y-85220000D03*
X76125000Y-82680000D03*
X76125000Y-80140000D03*
X76125000Y-77600000D03*
X76125000Y-75060000D03*
X76125000Y-72520000D03*
X76125000Y-69980000D03*
X76125000Y-67440000D03*
X76125000Y-64900000D03*
X76125000Y-62360000D03*
X76125000Y-59820000D03*
X76125000Y-57280000D03*
X76125000Y-54740000D03*
X60885000Y-54740000D03*
X60885000Y-57280000D03*
X60885000Y-59820000D03*
X60885000Y-62360000D03*
X60885000Y-64900000D03*
X60885000Y-67440000D03*
X60885000Y-69980000D03*
X60885000Y-72520000D03*
X60885000Y-75060000D03*
X60885000Y-77600000D03*
X60885000Y-80140000D03*
X60885000Y-82680000D03*
X60885000Y-85220000D03*
X60885000Y-87760000D03*
X60885000Y-90300000D03*
X60885000Y-92840000D03*
X60885000Y-95380000D03*
X60885000Y-97920000D03*
X60885000Y-100460000D03*
X60885000Y-103000000D03*
%TD*%
D11*
%TO.C,R16*%
X58160000Y-101500000D03*
D12*
X48000000Y-101500000D03*
%TD*%
D17*
%TO.C,X2*%
X85000000Y-102120000D03*
X82460000Y-102120000D03*
X85000000Y-99580000D03*
X82460000Y-99580000D03*
X85000000Y-97040000D03*
X82460000Y-97040000D03*
X85000000Y-94500000D03*
X82460000Y-94500000D03*
X85000000Y-91960000D03*
X82460000Y-91960000D03*
%TD*%
D11*
%TO.C,R26*%
X133500000Y-31840000D03*
D12*
X133500000Y-42000000D03*
%TD*%
D36*
%TO.C,DD5*%
X96080000Y-64420000D03*
D12*
X96080000Y-66960000D03*
X96080000Y-69500000D03*
X103700000Y-69500000D03*
X103700000Y-66960000D03*
X103700000Y-64420000D03*
%TD*%
D37*
%TO.C,T1*%
X134500000Y-73550000D03*
X134500000Y-108550000D03*
D38*
X148000000Y-81050000D03*
D39*
X148000000Y-86050000D03*
X148000000Y-91050000D03*
X148000000Y-96050000D03*
X148000000Y-101050000D03*
X123000000Y-101050000D03*
X123000000Y-96050000D03*
X123000000Y-91050000D03*
X123000000Y-86050000D03*
X123000000Y-81050000D03*
%TD*%
D34*
%TO.C,RS1*%
X145000000Y-49350000D03*
D35*
X139000000Y-51350000D03*
X139000000Y-63550000D03*
X151000000Y-63550000D03*
X151000000Y-51350000D03*
%TD*%
D11*
%TO.C,R22*%
X58160000Y-80500000D03*
D12*
X48000000Y-80500000D03*
%TD*%
D40*
%TO.C,DA3*%
X107230000Y-51600000D03*
D14*
X108500000Y-51600000D03*
X109770000Y-51600000D03*
%TD*%
D11*
%TO.C,R17*%
X58160000Y-98000000D03*
D12*
X48000000Y-98000000D03*
%TD*%
D11*
%TO.C,R4*%
X99000000Y-84660000D03*
D12*
X99000000Y-74500000D03*
%TD*%
D11*
%TO.C,R5*%
X88000000Y-74500000D03*
D12*
X88000000Y-84660000D03*
%TD*%
D41*
%TO.C,F1*%
X156500000Y-96400000D03*
X156500000Y-85000000D03*
%TD*%
D17*
%TO.C,X4*%
X41500000Y-64040000D03*
X41500000Y-61500000D03*
X44040000Y-64040000D03*
X44040000Y-61500000D03*
X46580000Y-64040000D03*
X46580000Y-61500000D03*
X49120000Y-64040000D03*
X49120000Y-61500000D03*
X51660000Y-64040000D03*
X51660000Y-61500000D03*
%TD*%
D22*
%TO.C,REF\u002A\u002A*%
X163000000Y-33500000D03*
%TD*%
D36*
%TO.C,DD2*%
X95880000Y-89500000D03*
D12*
X95880000Y-92040000D03*
X95880000Y-94580000D03*
X95880000Y-97120000D03*
X103500000Y-97120000D03*
X103500000Y-94580000D03*
X103500000Y-92040000D03*
X103500000Y-89500000D03*
%TD*%
D15*
%TO.C,DD3*%
X74000000Y-44120000D03*
D12*
X76540000Y-44120000D03*
X79080000Y-44120000D03*
X81620000Y-44120000D03*
X81620000Y-36500000D03*
X79080000Y-36500000D03*
X76540000Y-36500000D03*
X74000000Y-36500000D03*
%TD*%
D22*
%TO.C,REF\u002A\u002A*%
X32000000Y-109500000D03*
%TD*%
D36*
%TO.C,DD6*%
X83000000Y-53460000D03*
D12*
X83000000Y-56000000D03*
X83000000Y-58540000D03*
X90620000Y-58540000D03*
X90620000Y-56000000D03*
X90620000Y-53460000D03*
%TD*%
D42*
%TO.C,C9*%
X108580000Y-91500000D03*
D39*
X113580000Y-91500000D03*
%TD*%
D43*
%TO.C,ZQ2*%
X61500000Y-47500000D03*
X63400000Y-47500000D03*
%TD*%
D30*
%TO.C,R24*%
X115000000Y-32200000D03*
D33*
X115000000Y-44900000D03*
%TD*%
D11*
%TO.C,C2*%
X91700000Y-81700000D03*
X91700000Y-86700000D03*
%TD*%
G36*
X93464212Y-108369441D02*
G01*
X93465000Y-108371032D01*
X93465000Y-109628826D01*
X93464000Y-109630558D01*
X93462000Y-109630558D01*
X93461081Y-109629389D01*
X93441405Y-109562377D01*
X93389062Y-109517022D01*
X93320509Y-109507165D01*
X93257353Y-109536008D01*
X93241332Y-109553742D01*
X93239429Y-109554357D01*
X93237945Y-109553016D01*
X93238261Y-109551183D01*
X93267951Y-109512490D01*
X93325390Y-109373817D01*
X93345000Y-109224868D01*
X93345000Y-108775132D01*
X93325390Y-108626183D01*
X93267951Y-108487510D01*
X93234560Y-108443995D01*
X93234299Y-108442012D01*
X93235886Y-108440794D01*
X93237409Y-108441226D01*
X93290422Y-108484364D01*
X93359249Y-108492095D01*
X93421328Y-108461389D01*
X93457038Y-108401852D01*
X93461016Y-108370778D01*
X93462228Y-108369187D01*
X93464212Y-108369441D01*
G37*
G36*
X92267205Y-108497516D02*
G01*
X92267239Y-108499123D01*
X92214610Y-108626183D01*
X92195000Y-108775132D01*
X92195000Y-109224868D01*
X92214610Y-109373817D01*
X92266066Y-109498045D01*
X92265805Y-109500028D01*
X92263957Y-109500793D01*
X92262570Y-109499943D01*
X92257819Y-109493030D01*
X92257596Y-109492604D01*
X92249914Y-109472274D01*
X92207993Y-109416770D01*
X92142997Y-109392845D01*
X92075387Y-109407857D01*
X92026458Y-109457206D01*
X92020132Y-109470869D01*
X92009571Y-109497958D01*
X92009344Y-109498382D01*
X92006245Y-109502792D01*
X92004431Y-109503634D01*
X92002795Y-109502484D01*
X92002761Y-109500877D01*
X92055390Y-109373817D01*
X92075000Y-109224868D01*
X92075000Y-108775132D01*
X92055390Y-108626183D01*
X92003934Y-108501955D01*
X92004195Y-108499972D01*
X92006043Y-108499207D01*
X92007430Y-108500057D01*
X92012181Y-108506970D01*
X92012404Y-108507396D01*
X92020086Y-108527726D01*
X92062007Y-108583230D01*
X92127003Y-108607155D01*
X92194613Y-108592143D01*
X92243542Y-108542794D01*
X92249868Y-108529131D01*
X92260429Y-108502042D01*
X92260656Y-108501618D01*
X92263755Y-108497208D01*
X92265569Y-108496366D01*
X92267205Y-108497516D01*
G37*
G36*
X164045852Y-96315999D02*
G01*
X164045852Y-96317999D01*
X164044301Y-96318991D01*
X164044290Y-96318992D01*
X164044109Y-96319000D01*
X160955891Y-96319000D01*
X160954159Y-96318000D01*
X160954159Y-96316000D01*
X160955891Y-96315000D01*
X164044120Y-96314999D01*
X164045852Y-96315999D01*
G37*
G36*
X164045841Y-94132000D02*
G01*
X164045841Y-94134000D01*
X164044109Y-94135000D01*
X160955880Y-94135001D01*
X160954148Y-94134001D01*
X160954148Y-94132001D01*
X160955699Y-94131009D01*
X160955710Y-94131008D01*
X160955891Y-94131000D01*
X164044109Y-94131000D01*
X164045841Y-94132000D01*
G37*
G36*
X107808919Y-50970611D02*
G01*
X107828595Y-51037623D01*
X107880938Y-51082978D01*
X107949491Y-51092835D01*
X108012647Y-51063992D01*
X108028668Y-51046258D01*
X108030571Y-51045643D01*
X108032055Y-51046984D01*
X108031739Y-51048817D01*
X108002049Y-51087510D01*
X107944610Y-51226183D01*
X107925000Y-51375132D01*
X107925000Y-51824868D01*
X107944610Y-51973817D01*
X108002049Y-52112490D01*
X108035440Y-52156005D01*
X108035701Y-52157988D01*
X108034114Y-52159206D01*
X108032591Y-52158774D01*
X107979578Y-52115636D01*
X107910751Y-52107905D01*
X107848672Y-52138611D01*
X107812962Y-52198148D01*
X107808984Y-52229222D01*
X107807772Y-52230813D01*
X107805788Y-52230559D01*
X107805000Y-52228968D01*
X107805000Y-50971174D01*
X107806000Y-50969442D01*
X107808000Y-50969442D01*
X107808919Y-50970611D01*
G37*
G36*
X109267205Y-51097516D02*
G01*
X109267239Y-51099123D01*
X109214610Y-51226183D01*
X109195000Y-51375132D01*
X109195000Y-51824868D01*
X109214610Y-51973817D01*
X109266066Y-52098045D01*
X109265805Y-52100028D01*
X109263957Y-52100793D01*
X109262570Y-52099943D01*
X109257819Y-52093030D01*
X109257596Y-52092604D01*
X109249914Y-52072274D01*
X109207993Y-52016770D01*
X109142997Y-51992845D01*
X109075387Y-52007857D01*
X109026458Y-52057206D01*
X109020132Y-52070869D01*
X109009571Y-52097958D01*
X109009344Y-52098382D01*
X109006245Y-52102792D01*
X109004431Y-52103634D01*
X109002795Y-52102484D01*
X109002761Y-52100877D01*
X109055390Y-51973817D01*
X109075000Y-51824868D01*
X109075000Y-51375132D01*
X109055390Y-51226183D01*
X109003934Y-51101955D01*
X109004195Y-51099972D01*
X109006043Y-51099207D01*
X109007430Y-51100057D01*
X109012181Y-51106970D01*
X109012404Y-51107396D01*
X109020086Y-51127726D01*
X109062007Y-51183230D01*
X109127003Y-51207155D01*
X109194613Y-51192143D01*
X109243542Y-51142794D01*
X109249868Y-51129131D01*
X109260429Y-51102042D01*
X109260656Y-51101618D01*
X109263755Y-51097208D01*
X109265569Y-51096366D01*
X109267205Y-51097516D01*
G37*
M02*
