%TF.GenerationSoftware,KiCad,Pcbnew,(6.0.6)*%
%TF.CreationDate,2022-07-28T15:05:17+07:00*%
%TF.ProjectId,_________________(__),1f3b3042-305f-43f4-903e-463541413e40,rev?*%
%TF.SameCoordinates,Original*%
%TF.FileFunction,Legend,Top*%
%TF.FilePolarity,Positive*%
%FSLAX46Y46*%
G04 Gerber Fmt 4.6, Leading zero omitted, Abs format (unit mm)*
G04 Created by KiCad (PCBNEW (6.0.6)) date 2022-07-28 15:05:17*
%MOMM*%
%LPD*%
G01*
G04 APERTURE LIST*
%ADD10C,0.150000*%
G04 APERTURE END LIST*
D10*
X90052380Y-104100000D02*
X89052380Y-104100000D01*
X90052380Y-103528571D02*
X89480952Y-103957142D01*
X89052380Y-103528571D02*
X89623809Y-104100000D01*
X90052380Y-102338095D02*
X89052380Y-102338095D01*
X89052380Y-101766666D01*
X90052380Y-101766666D01*
X90052380Y-101290476D02*
X89052380Y-101290476D01*
X89052380Y-100909523D01*
X89100000Y-100814285D01*
X89147619Y-100766666D01*
X89242857Y-100719047D01*
X89385714Y-100719047D01*
X89480952Y-100766666D01*
X89528571Y-100814285D01*
X89576190Y-100909523D01*
X89576190Y-101290476D01*
X89052380Y-100100000D02*
X89052380Y-99909523D01*
X89100000Y-99814285D01*
X89195238Y-99719047D01*
X89385714Y-99671428D01*
X89719047Y-99671428D01*
X89909523Y-99719047D01*
X90004761Y-99814285D01*
X90052380Y-99909523D01*
X90052380Y-100100000D01*
X90004761Y-100195238D01*
X89909523Y-100290476D01*
X89719047Y-100338095D01*
X89385714Y-100338095D01*
X89195238Y-100290476D01*
X89100000Y-100195238D01*
X89052380Y-100100000D01*
X90052380Y-99242857D02*
X89052380Y-99242857D01*
X89052380Y-98719047D01*
X90052380Y-98385714D02*
X89052380Y-98385714D01*
X89052380Y-98004761D01*
X89100000Y-97909523D01*
X89147619Y-97861904D01*
X89242857Y-97814285D01*
X89385714Y-97814285D01*
X89480952Y-97861904D01*
X89528571Y-97909523D01*
X89576190Y-98004761D01*
X89576190Y-98385714D01*
X89766666Y-97433333D02*
X89766666Y-96957142D01*
X90052380Y-97528571D02*
X89052380Y-97195238D01*
X90052380Y-96861904D01*
X90052380Y-96528571D02*
X89052380Y-96528571D01*
X89766666Y-96195238D01*
X89052380Y-95861904D01*
X90052380Y-95861904D01*
X90052380Y-95385714D02*
X89052380Y-95385714D01*
X89766666Y-95052380D01*
X89052380Y-94719047D01*
X90052380Y-94719047D01*
X89766666Y-94290476D02*
X89766666Y-93814285D01*
X90052380Y-94385714D02*
X89052380Y-94052380D01*
X90052380Y-93719047D01*
X89052380Y-93528571D02*
X89052380Y-92957142D01*
X90052380Y-93242857D02*
X89052380Y-93242857D01*
X89052380Y-92433333D02*
X89052380Y-92242857D01*
X89100000Y-92147619D01*
X89195238Y-92052380D01*
X89385714Y-92004761D01*
X89719047Y-92004761D01*
X89909523Y-92052380D01*
X90004761Y-92147619D01*
X90052380Y-92242857D01*
X90052380Y-92433333D01*
X90004761Y-92528571D01*
X89909523Y-92623809D01*
X89719047Y-92671428D01*
X89385714Y-92671428D01*
X89195238Y-92623809D01*
X89100000Y-92528571D01*
X89052380Y-92433333D01*
X90052380Y-91576190D02*
X89052380Y-91576190D01*
X89052380Y-91195238D01*
X89100000Y-91100000D01*
X89147619Y-91052380D01*
X89242857Y-91004761D01*
X89385714Y-91004761D01*
X89480952Y-91052380D01*
X89528571Y-91100000D01*
X89576190Y-91195238D01*
X89576190Y-91576190D01*
X89052380Y-90623809D02*
X89719047Y-90290476D01*
X89052380Y-89957142D02*
X89909523Y-90385714D01*
X90004761Y-90480952D01*
X90052380Y-90576190D01*
X90052380Y-90623809D01*
X64876190Y-52366666D02*
X65352380Y-52366666D01*
X64780952Y-52652380D02*
X65114285Y-51652380D01*
X65447619Y-52652380D01*
X65638095Y-51652380D02*
X66209523Y-51652380D01*
X65923809Y-52652380D02*
X65923809Y-51652380D01*
X66542857Y-52652380D02*
X66542857Y-51652380D01*
X66876190Y-52366666D01*
X67209523Y-51652380D01*
X67209523Y-52652380D01*
X67685714Y-52128571D02*
X68019047Y-52128571D01*
X68161904Y-52652380D02*
X67685714Y-52652380D01*
X67685714Y-51652380D01*
X68161904Y-51652380D01*
X69114285Y-51700000D02*
X69019047Y-51652380D01*
X68876190Y-51652380D01*
X68733333Y-51700000D01*
X68638095Y-51795238D01*
X68590476Y-51890476D01*
X68542857Y-52080952D01*
X68542857Y-52223809D01*
X68590476Y-52414285D01*
X68638095Y-52509523D01*
X68733333Y-52604761D01*
X68876190Y-52652380D01*
X68971428Y-52652380D01*
X69114285Y-52604761D01*
X69161904Y-52557142D01*
X69161904Y-52223809D01*
X68971428Y-52223809D01*
X69542857Y-52366666D02*
X70019047Y-52366666D01*
X69447619Y-52652380D02*
X69780952Y-51652380D01*
X70114285Y-52652380D01*
X70971428Y-52652380D02*
X70400000Y-52652380D01*
X70685714Y-52652380D02*
X70685714Y-51652380D01*
X70590476Y-51795238D01*
X70495238Y-51890476D01*
X70400000Y-51938095D01*
X71828571Y-51652380D02*
X71638095Y-51652380D01*
X71542857Y-51700000D01*
X71495238Y-51747619D01*
X71400000Y-51890476D01*
X71352380Y-52080952D01*
X71352380Y-52461904D01*
X71400000Y-52557142D01*
X71447619Y-52604761D01*
X71542857Y-52652380D01*
X71733333Y-52652380D01*
X71828571Y-52604761D01*
X71876190Y-52557142D01*
X71923809Y-52461904D01*
X71923809Y-52223809D01*
X71876190Y-52128571D01*
X71828571Y-52080952D01*
X71733333Y-52033333D01*
X71542857Y-52033333D01*
X71447619Y-52080952D01*
X71400000Y-52128571D01*
X71352380Y-52223809D01*
X43023809Y-69152380D02*
X43023809Y-68152380D01*
X43595238Y-69152380D02*
X43166666Y-68580952D01*
X43595238Y-68152380D02*
X43023809Y-68723809D01*
X44785714Y-69152380D02*
X44785714Y-68152380D01*
X45357142Y-68152380D01*
X45357142Y-69152380D01*
X46404761Y-69152380D02*
X46404761Y-68152380D01*
X46261904Y-68152380D01*
X46119047Y-68200000D01*
X46023809Y-68295238D01*
X45976190Y-68438095D01*
X45880952Y-69009523D01*
X45833333Y-69104761D01*
X45738095Y-69152380D01*
X45690476Y-69152380D01*
X46833333Y-68866666D02*
X47309523Y-68866666D01*
X46738095Y-69152380D02*
X47071428Y-68152380D01*
X47404761Y-69152380D01*
X47595238Y-68152380D02*
X48166666Y-68152380D01*
X47880952Y-69152380D02*
X47880952Y-68152380D01*
X48500000Y-68628571D02*
X48833333Y-68628571D01*
X48976190Y-69152380D02*
X48500000Y-69152380D01*
X48500000Y-68152380D01*
X48976190Y-68152380D01*
X50166666Y-68152380D02*
X50166666Y-69152380D01*
X50738095Y-68152380D01*
X50738095Y-69152380D01*
X51214285Y-69152380D02*
X51214285Y-68152380D01*
X51214285Y-68628571D02*
X51785714Y-68628571D01*
X51785714Y-69152380D02*
X51785714Y-68152380D01*
X53023809Y-69390476D02*
X53023809Y-69152380D01*
X52166666Y-69152380D01*
X52166666Y-69390476D01*
X52833333Y-69152380D02*
X52833333Y-68152380D01*
X52595238Y-68152380D01*
X52500000Y-68200000D01*
X52452380Y-68247619D01*
X52404761Y-68342857D01*
X52309523Y-69152380D01*
X53404761Y-68152380D02*
X53404761Y-69152380D01*
X53976190Y-68152380D01*
X53976190Y-69152380D01*
X54452380Y-69152380D02*
X54452380Y-68152380D01*
X55023809Y-69152380D02*
X54595238Y-68580952D01*
X55023809Y-68152380D02*
X54452380Y-68723809D01*
X55404761Y-68866666D02*
X55880952Y-68866666D01*
X55309523Y-69152380D02*
X55642857Y-68152380D01*
X55976190Y-69152380D01*
X56880952Y-68152380D02*
X56880952Y-69152380D01*
X56309523Y-68152380D02*
X56309523Y-69152380D01*
X56976190Y-69152380D01*
X56976190Y-69390476D01*
X57357142Y-68152380D02*
X57357142Y-69152380D01*
X57928571Y-68152380D01*
X57928571Y-69152380D01*
X58404761Y-68152380D02*
X58404761Y-69152380D01*
X58976190Y-68152380D01*
X58976190Y-69152380D01*
X44052380Y-87776190D02*
X43052380Y-87776190D01*
X44052380Y-87204761D02*
X43480952Y-87633333D01*
X43052380Y-87204761D02*
X43623809Y-87776190D01*
X44052380Y-86014285D02*
X43052380Y-86014285D01*
X43052380Y-85442857D01*
X44052380Y-85442857D01*
X44052380Y-84395238D02*
X43052380Y-84395238D01*
X43052380Y-84538095D01*
X43100000Y-84680952D01*
X43195238Y-84776190D01*
X43338095Y-84823809D01*
X43909523Y-84919047D01*
X44004761Y-84966666D01*
X44052380Y-85061904D01*
X44052380Y-85109523D01*
X43766666Y-83966666D02*
X43766666Y-83490476D01*
X44052380Y-84061904D02*
X43052380Y-83728571D01*
X44052380Y-83395238D01*
X43052380Y-83204761D02*
X43052380Y-82633333D01*
X44052380Y-82919047D02*
X43052380Y-82919047D01*
X43528571Y-82300000D02*
X43528571Y-81966666D01*
X44052380Y-81823809D02*
X44052380Y-82300000D01*
X43052380Y-82300000D01*
X43052380Y-81823809D01*
X43528571Y-80300000D02*
X43576190Y-80157142D01*
X43623809Y-80109523D01*
X43719047Y-80061904D01*
X43861904Y-80061904D01*
X43957142Y-80109523D01*
X44004761Y-80157142D01*
X44052380Y-80252380D01*
X44052380Y-80633333D01*
X43052380Y-80633333D01*
X43052380Y-80300000D01*
X43100000Y-80204761D01*
X43147619Y-80157142D01*
X43242857Y-80109523D01*
X43338095Y-80109523D01*
X43433333Y-80157142D01*
X43480952Y-80204761D01*
X43528571Y-80300000D01*
X43528571Y-80633333D01*
X43052380Y-79728571D02*
X44052380Y-79061904D01*
X43052380Y-79061904D02*
X44052380Y-79728571D01*
X43052380Y-78490476D02*
X43052380Y-78300000D01*
X43100000Y-78204761D01*
X43195238Y-78109523D01*
X43385714Y-78061904D01*
X43719047Y-78061904D01*
X43909523Y-78109523D01*
X44004761Y-78204761D01*
X44052380Y-78300000D01*
X44052380Y-78490476D01*
X44004761Y-78585714D01*
X43909523Y-78680952D01*
X43719047Y-78728571D01*
X43385714Y-78728571D01*
X43195238Y-78680952D01*
X43100000Y-78585714D01*
X43052380Y-78490476D01*
X44290476Y-76871428D02*
X44052380Y-76871428D01*
X44052380Y-77728571D01*
X44290476Y-77728571D01*
X44052380Y-77061904D02*
X43052380Y-77061904D01*
X43052380Y-77300000D01*
X43100000Y-77395238D01*
X43147619Y-77442857D01*
X43242857Y-77490476D01*
X44052380Y-77585714D01*
X44052380Y-76490476D02*
X43052380Y-76490476D01*
X43528571Y-76490476D02*
X43528571Y-75919047D01*
X44052380Y-75919047D02*
X43052380Y-75919047D01*
X43052380Y-75252380D02*
X43052380Y-75061904D01*
X43100000Y-74966666D01*
X43195238Y-74871428D01*
X43385714Y-74823809D01*
X43719047Y-74823809D01*
X43909523Y-74871428D01*
X44004761Y-74966666D01*
X44052380Y-75061904D01*
X44052380Y-75252380D01*
X44004761Y-75347619D01*
X43909523Y-75442857D01*
X43719047Y-75490476D01*
X43385714Y-75490476D01*
X43195238Y-75442857D01*
X43100000Y-75347619D01*
X43052380Y-75252380D01*
X43052380Y-74395238D02*
X44052380Y-74395238D01*
X43052380Y-73823809D01*
X44052380Y-73823809D01*
X42671428Y-74300000D02*
X42766666Y-74252380D01*
X42814285Y-74157142D01*
X42814285Y-74061904D01*
X42766666Y-73966666D01*
X42671428Y-73919047D01*
%TO.C,C7*%
X113583333Y-63757142D02*
X113535714Y-63804761D01*
X113392857Y-63852380D01*
X113297619Y-63852380D01*
X113154761Y-63804761D01*
X113059523Y-63709523D01*
X113011904Y-63614285D01*
X112964285Y-63423809D01*
X112964285Y-63280952D01*
X113011904Y-63090476D01*
X113059523Y-62995238D01*
X113154761Y-62900000D01*
X113297619Y-62852380D01*
X113392857Y-62852380D01*
X113535714Y-62900000D01*
X113583333Y-62947619D01*
X113916666Y-62852380D02*
X114583333Y-62852380D01*
X114154761Y-63852380D01*
%TO.C,R15*%
X52437142Y-105452380D02*
X52103809Y-104976190D01*
X51865714Y-105452380D02*
X51865714Y-104452380D01*
X52246666Y-104452380D01*
X52341904Y-104500000D01*
X52389523Y-104547619D01*
X52437142Y-104642857D01*
X52437142Y-104785714D01*
X52389523Y-104880952D01*
X52341904Y-104928571D01*
X52246666Y-104976190D01*
X51865714Y-104976190D01*
X53389523Y-105452380D02*
X52818095Y-105452380D01*
X53103809Y-105452380D02*
X53103809Y-104452380D01*
X53008571Y-104595238D01*
X52913333Y-104690476D01*
X52818095Y-104738095D01*
X54294285Y-104452380D02*
X53818095Y-104452380D01*
X53770476Y-104928571D01*
X53818095Y-104880952D01*
X53913333Y-104833333D01*
X54151428Y-104833333D01*
X54246666Y-104880952D01*
X54294285Y-104928571D01*
X54341904Y-105023809D01*
X54341904Y-105261904D01*
X54294285Y-105357142D01*
X54246666Y-105404761D01*
X54151428Y-105452380D01*
X53913333Y-105452380D01*
X53818095Y-105404761D01*
X53770476Y-105357142D01*
%TO.C,R19*%
X52437142Y-91452380D02*
X52103809Y-90976190D01*
X51865714Y-91452380D02*
X51865714Y-90452380D01*
X52246666Y-90452380D01*
X52341904Y-90500000D01*
X52389523Y-90547619D01*
X52437142Y-90642857D01*
X52437142Y-90785714D01*
X52389523Y-90880952D01*
X52341904Y-90928571D01*
X52246666Y-90976190D01*
X51865714Y-90976190D01*
X53389523Y-91452380D02*
X52818095Y-91452380D01*
X53103809Y-91452380D02*
X53103809Y-90452380D01*
X53008571Y-90595238D01*
X52913333Y-90690476D01*
X52818095Y-90738095D01*
X53865714Y-91452380D02*
X54056190Y-91452380D01*
X54151428Y-91404761D01*
X54199047Y-91357142D01*
X54294285Y-91214285D01*
X54341904Y-91023809D01*
X54341904Y-90642857D01*
X54294285Y-90547619D01*
X54246666Y-90500000D01*
X54151428Y-90452380D01*
X53960952Y-90452380D01*
X53865714Y-90500000D01*
X53818095Y-90547619D01*
X53770476Y-90642857D01*
X53770476Y-90880952D01*
X53818095Y-90976190D01*
X53865714Y-91023809D01*
X53960952Y-91071428D01*
X54151428Y-91071428D01*
X54246666Y-91023809D01*
X54294285Y-90976190D01*
X54341904Y-90880952D01*
%TO.C,DA2*%
X91603333Y-106452380D02*
X91603333Y-105452380D01*
X91841428Y-105452380D01*
X91984285Y-105500000D01*
X92079523Y-105595238D01*
X92127142Y-105690476D01*
X92174761Y-105880952D01*
X92174761Y-106023809D01*
X92127142Y-106214285D01*
X92079523Y-106309523D01*
X91984285Y-106404761D01*
X91841428Y-106452380D01*
X91603333Y-106452380D01*
X92555714Y-106166666D02*
X93031904Y-106166666D01*
X92460476Y-106452380D02*
X92793809Y-105452380D01*
X93127142Y-106452380D01*
X93412857Y-105547619D02*
X93460476Y-105500000D01*
X93555714Y-105452380D01*
X93793809Y-105452380D01*
X93889047Y-105500000D01*
X93936666Y-105547619D01*
X93984285Y-105642857D01*
X93984285Y-105738095D01*
X93936666Y-105880952D01*
X93365238Y-106452380D01*
X93984285Y-106452380D01*
X83828571Y-109652380D02*
X83352380Y-109652380D01*
X83352380Y-108652380D01*
X84161904Y-109652380D02*
X84161904Y-108652380D01*
X84495238Y-109366666D01*
X84828571Y-108652380D01*
X84828571Y-109652380D01*
X85209523Y-108652380D02*
X85876190Y-108652380D01*
X85447619Y-109652380D01*
X86304761Y-109652380D02*
X86495238Y-109652380D01*
X86590476Y-109604761D01*
X86638095Y-109557142D01*
X86733333Y-109414285D01*
X86780952Y-109223809D01*
X86780952Y-108842857D01*
X86733333Y-108747619D01*
X86685714Y-108700000D01*
X86590476Y-108652380D01*
X86400000Y-108652380D01*
X86304761Y-108700000D01*
X86257142Y-108747619D01*
X86209523Y-108842857D01*
X86209523Y-109080952D01*
X86257142Y-109176190D01*
X86304761Y-109223809D01*
X86400000Y-109271428D01*
X86590476Y-109271428D01*
X86685714Y-109223809D01*
X86733333Y-109176190D01*
X86780952Y-109080952D01*
X87685714Y-109652380D02*
X87209523Y-109652380D01*
X87209523Y-108652380D01*
X88209523Y-108652380D02*
X88304761Y-108652380D01*
X88400000Y-108700000D01*
X88447619Y-108747619D01*
X88495238Y-108842857D01*
X88542857Y-109033333D01*
X88542857Y-109271428D01*
X88495238Y-109461904D01*
X88447619Y-109557142D01*
X88400000Y-109604761D01*
X88304761Y-109652380D01*
X88209523Y-109652380D01*
X88114285Y-109604761D01*
X88066666Y-109557142D01*
X88019047Y-109461904D01*
X87971428Y-109271428D01*
X87971428Y-109033333D01*
X88019047Y-108842857D01*
X88066666Y-108747619D01*
X88114285Y-108700000D01*
X88209523Y-108652380D01*
X89447619Y-108652380D02*
X88971428Y-108652380D01*
X88923809Y-109128571D01*
X88971428Y-109080952D01*
X89066666Y-109033333D01*
X89304761Y-109033333D01*
X89400000Y-109080952D01*
X89447619Y-109128571D01*
X89495238Y-109223809D01*
X89495238Y-109461904D01*
X89447619Y-109557142D01*
X89400000Y-109604761D01*
X89304761Y-109652380D01*
X89066666Y-109652380D01*
X88971428Y-109604761D01*
X88923809Y-109557142D01*
%TO.C,C1*%
X95457142Y-79366666D02*
X95504761Y-79414285D01*
X95552380Y-79557142D01*
X95552380Y-79652380D01*
X95504761Y-79795238D01*
X95409523Y-79890476D01*
X95314285Y-79938095D01*
X95123809Y-79985714D01*
X94980952Y-79985714D01*
X94790476Y-79938095D01*
X94695238Y-79890476D01*
X94600000Y-79795238D01*
X94552380Y-79652380D01*
X94552380Y-79557142D01*
X94600000Y-79414285D01*
X94647619Y-79366666D01*
X95552380Y-78414285D02*
X95552380Y-78985714D01*
X95552380Y-78700000D02*
X94552380Y-78700000D01*
X94695238Y-78795238D01*
X94790476Y-78890476D01*
X94838095Y-78985714D01*
%TO.C,R20*%
X52437142Y-87952380D02*
X52103809Y-87476190D01*
X51865714Y-87952380D02*
X51865714Y-86952380D01*
X52246666Y-86952380D01*
X52341904Y-87000000D01*
X52389523Y-87047619D01*
X52437142Y-87142857D01*
X52437142Y-87285714D01*
X52389523Y-87380952D01*
X52341904Y-87428571D01*
X52246666Y-87476190D01*
X51865714Y-87476190D01*
X52818095Y-87047619D02*
X52865714Y-87000000D01*
X52960952Y-86952380D01*
X53199047Y-86952380D01*
X53294285Y-87000000D01*
X53341904Y-87047619D01*
X53389523Y-87142857D01*
X53389523Y-87238095D01*
X53341904Y-87380952D01*
X52770476Y-87952380D01*
X53389523Y-87952380D01*
X54008571Y-86952380D02*
X54103809Y-86952380D01*
X54199047Y-87000000D01*
X54246666Y-87047619D01*
X54294285Y-87142857D01*
X54341904Y-87333333D01*
X54341904Y-87571428D01*
X54294285Y-87761904D01*
X54246666Y-87857142D01*
X54199047Y-87904761D01*
X54103809Y-87952380D01*
X54008571Y-87952380D01*
X53913333Y-87904761D01*
X53865714Y-87857142D01*
X53818095Y-87761904D01*
X53770476Y-87571428D01*
X53770476Y-87333333D01*
X53818095Y-87142857D01*
X53865714Y-87047619D01*
X53913333Y-87000000D01*
X54008571Y-86952380D01*
%TO.C,C10*%
X98457142Y-109075237D02*
X98504761Y-109122856D01*
X98552380Y-109265713D01*
X98552380Y-109360951D01*
X98504761Y-109503808D01*
X98409523Y-109599046D01*
X98314285Y-109646665D01*
X98123809Y-109694284D01*
X97980952Y-109694284D01*
X97790476Y-109646665D01*
X97695238Y-109599046D01*
X97600000Y-109503808D01*
X97552380Y-109360951D01*
X97552380Y-109265713D01*
X97600000Y-109122856D01*
X97647619Y-109075237D01*
X98552380Y-108122856D02*
X98552380Y-108694284D01*
X98552380Y-108408570D02*
X97552380Y-108408570D01*
X97695238Y-108503808D01*
X97790476Y-108599046D01*
X97838095Y-108694284D01*
X97552380Y-107503808D02*
X97552380Y-107408570D01*
X97600000Y-107313332D01*
X97647619Y-107265713D01*
X97742857Y-107218094D01*
X97933333Y-107170475D01*
X98171428Y-107170475D01*
X98361904Y-107218094D01*
X98457142Y-107265713D01*
X98504761Y-107313332D01*
X98552380Y-107408570D01*
X98552380Y-107503808D01*
X98504761Y-107599046D01*
X98457142Y-107646665D01*
X98361904Y-107694284D01*
X98171428Y-107741903D01*
X97933333Y-107741903D01*
X97742857Y-107694284D01*
X97647619Y-107646665D01*
X97600000Y-107599046D01*
X97552380Y-107503808D01*
%TO.C,ZQ1*%
X83477380Y-74333333D02*
X83477380Y-73666666D01*
X84477380Y-74333333D01*
X84477380Y-73666666D01*
X84572619Y-72619047D02*
X84525000Y-72714285D01*
X84429761Y-72809523D01*
X84286904Y-72952380D01*
X84239285Y-73047619D01*
X84239285Y-73142857D01*
X84477380Y-73095238D02*
X84429761Y-73190476D01*
X84334523Y-73285714D01*
X84144047Y-73333333D01*
X83810714Y-73333333D01*
X83620238Y-73285714D01*
X83525000Y-73190476D01*
X83477380Y-73095238D01*
X83477380Y-72904761D01*
X83525000Y-72809523D01*
X83620238Y-72714285D01*
X83810714Y-72666666D01*
X84144047Y-72666666D01*
X84334523Y-72714285D01*
X84429761Y-72809523D01*
X84477380Y-72904761D01*
X84477380Y-73095238D01*
X84477380Y-71714285D02*
X84477380Y-72285714D01*
X84477380Y-72000000D02*
X83477380Y-72000000D01*
X83620238Y-72095238D01*
X83715476Y-72190476D01*
X83763095Y-72285714D01*
%TO.C,R21*%
X52437142Y-84452380D02*
X52103809Y-83976190D01*
X51865714Y-84452380D02*
X51865714Y-83452380D01*
X52246666Y-83452380D01*
X52341904Y-83500000D01*
X52389523Y-83547619D01*
X52437142Y-83642857D01*
X52437142Y-83785714D01*
X52389523Y-83880952D01*
X52341904Y-83928571D01*
X52246666Y-83976190D01*
X51865714Y-83976190D01*
X52818095Y-83547619D02*
X52865714Y-83500000D01*
X52960952Y-83452380D01*
X53199047Y-83452380D01*
X53294285Y-83500000D01*
X53341904Y-83547619D01*
X53389523Y-83642857D01*
X53389523Y-83738095D01*
X53341904Y-83880952D01*
X52770476Y-84452380D01*
X53389523Y-84452380D01*
X54341904Y-84452380D02*
X53770476Y-84452380D01*
X54056190Y-84452380D02*
X54056190Y-83452380D01*
X53960952Y-83595238D01*
X53865714Y-83690476D01*
X53770476Y-83738095D01*
%TO.C,X3*%
X31552380Y-82409523D02*
X32552380Y-81742857D01*
X31552380Y-81742857D02*
X32552380Y-82409523D01*
X31552380Y-81457142D02*
X31552380Y-80838095D01*
X31933333Y-81171428D01*
X31933333Y-81028571D01*
X31980952Y-80933333D01*
X32028571Y-80885714D01*
X32123809Y-80838095D01*
X32361904Y-80838095D01*
X32457142Y-80885714D01*
X32504761Y-80933333D01*
X32552380Y-81028571D01*
X32552380Y-81314285D01*
X32504761Y-81409523D01*
X32457142Y-81457142D01*
%TO.C,DD4*%
X59622380Y-41548095D02*
X58622380Y-41548095D01*
X58622380Y-41310000D01*
X58670000Y-41167142D01*
X58765238Y-41071904D01*
X58860476Y-41024285D01*
X59050952Y-40976666D01*
X59193809Y-40976666D01*
X59384285Y-41024285D01*
X59479523Y-41071904D01*
X59574761Y-41167142D01*
X59622380Y-41310000D01*
X59622380Y-41548095D01*
X59622380Y-40548095D02*
X58622380Y-40548095D01*
X58622380Y-40310000D01*
X58670000Y-40167142D01*
X58765238Y-40071904D01*
X58860476Y-40024285D01*
X59050952Y-39976666D01*
X59193809Y-39976666D01*
X59384285Y-40024285D01*
X59479523Y-40071904D01*
X59574761Y-40167142D01*
X59622380Y-40310000D01*
X59622380Y-40548095D01*
X58955714Y-39119523D02*
X59622380Y-39119523D01*
X58574761Y-39357619D02*
X59289047Y-39595714D01*
X59289047Y-38976666D01*
X62357142Y-34352380D02*
X62357142Y-33352380D01*
X62595238Y-33352380D01*
X62738095Y-33400000D01*
X62833333Y-33495238D01*
X62880952Y-33590476D01*
X62928571Y-33780952D01*
X62928571Y-33923809D01*
X62880952Y-34114285D01*
X62833333Y-34209523D01*
X62738095Y-34304761D01*
X62595238Y-34352380D01*
X62357142Y-34352380D01*
X63309523Y-34304761D02*
X63452380Y-34352380D01*
X63690476Y-34352380D01*
X63785714Y-34304761D01*
X63833333Y-34257142D01*
X63880952Y-34161904D01*
X63880952Y-34066666D01*
X63833333Y-33971428D01*
X63785714Y-33923809D01*
X63690476Y-33876190D01*
X63500000Y-33828571D01*
X63404761Y-33780952D01*
X63357142Y-33733333D01*
X63309523Y-33638095D01*
X63309523Y-33542857D01*
X63357142Y-33447619D01*
X63404761Y-33400000D01*
X63500000Y-33352380D01*
X63738095Y-33352380D01*
X63880952Y-33400000D01*
X64833333Y-34352380D02*
X64261904Y-34352380D01*
X64547619Y-34352380D02*
X64547619Y-33352380D01*
X64452380Y-33495238D01*
X64357142Y-33590476D01*
X64261904Y-33638095D01*
X65166666Y-33352380D02*
X65785714Y-33352380D01*
X65452380Y-33733333D01*
X65595238Y-33733333D01*
X65690476Y-33780952D01*
X65738095Y-33828571D01*
X65785714Y-33923809D01*
X65785714Y-34161904D01*
X65738095Y-34257142D01*
X65690476Y-34304761D01*
X65595238Y-34352380D01*
X65309523Y-34352380D01*
X65214285Y-34304761D01*
X65166666Y-34257142D01*
X66404761Y-33352380D02*
X66500000Y-33352380D01*
X66595238Y-33400000D01*
X66642857Y-33447619D01*
X66690476Y-33542857D01*
X66738095Y-33733333D01*
X66738095Y-33971428D01*
X66690476Y-34161904D01*
X66642857Y-34257142D01*
X66595238Y-34304761D01*
X66500000Y-34352380D01*
X66404761Y-34352380D01*
X66309523Y-34304761D01*
X66261904Y-34257142D01*
X66214285Y-34161904D01*
X66166666Y-33971428D01*
X66166666Y-33733333D01*
X66214285Y-33542857D01*
X66261904Y-33447619D01*
X66309523Y-33400000D01*
X66404761Y-33352380D01*
X67071428Y-33352380D02*
X67738095Y-33352380D01*
X67309523Y-34352380D01*
%TO.C,R18*%
X52437142Y-94952380D02*
X52103809Y-94476190D01*
X51865714Y-94952380D02*
X51865714Y-93952380D01*
X52246666Y-93952380D01*
X52341904Y-94000000D01*
X52389523Y-94047619D01*
X52437142Y-94142857D01*
X52437142Y-94285714D01*
X52389523Y-94380952D01*
X52341904Y-94428571D01*
X52246666Y-94476190D01*
X51865714Y-94476190D01*
X53389523Y-94952380D02*
X52818095Y-94952380D01*
X53103809Y-94952380D02*
X53103809Y-93952380D01*
X53008571Y-94095238D01*
X52913333Y-94190476D01*
X52818095Y-94238095D01*
X53960952Y-94380952D02*
X53865714Y-94333333D01*
X53818095Y-94285714D01*
X53770476Y-94190476D01*
X53770476Y-94142857D01*
X53818095Y-94047619D01*
X53865714Y-94000000D01*
X53960952Y-93952380D01*
X54151428Y-93952380D01*
X54246666Y-94000000D01*
X54294285Y-94047619D01*
X54341904Y-94142857D01*
X54341904Y-94190476D01*
X54294285Y-94285714D01*
X54246666Y-94333333D01*
X54151428Y-94380952D01*
X53960952Y-94380952D01*
X53865714Y-94428571D01*
X53818095Y-94476190D01*
X53770476Y-94571428D01*
X53770476Y-94761904D01*
X53818095Y-94857142D01*
X53865714Y-94904761D01*
X53960952Y-94952380D01*
X54151428Y-94952380D01*
X54246666Y-94904761D01*
X54294285Y-94857142D01*
X54341904Y-94761904D01*
X54341904Y-94571428D01*
X54294285Y-94476190D01*
X54246666Y-94428571D01*
X54151428Y-94380952D01*
%TO.C,VD2*%
X110690476Y-107952380D02*
X111023809Y-108952380D01*
X111357142Y-107952380D01*
X111690476Y-108952380D02*
X111690476Y-107952380D01*
X111928571Y-107952380D01*
X112071428Y-108000000D01*
X112166666Y-108095238D01*
X112214285Y-108190476D01*
X112261904Y-108380952D01*
X112261904Y-108523809D01*
X112214285Y-108714285D01*
X112166666Y-108809523D01*
X112071428Y-108904761D01*
X111928571Y-108952380D01*
X111690476Y-108952380D01*
X112642857Y-108047619D02*
X112690476Y-108000000D01*
X112785714Y-107952380D01*
X113023809Y-107952380D01*
X113119047Y-108000000D01*
X113166666Y-108047619D01*
X113214285Y-108142857D01*
X113214285Y-108238095D01*
X113166666Y-108380952D01*
X112595238Y-108952380D01*
X113214285Y-108952380D01*
X105852381Y-104185714D02*
X105852381Y-104757142D01*
X105852381Y-104471428D02*
X104852381Y-104471428D01*
X104995239Y-104566666D01*
X105090477Y-104661904D01*
X105138096Y-104757142D01*
X104852381Y-103852380D02*
X105852381Y-103614285D01*
X105138096Y-103423809D01*
X105852381Y-103233333D01*
X104852381Y-102995238D01*
X104852381Y-102423809D02*
X104852381Y-102328571D01*
X104900001Y-102233333D01*
X104947620Y-102185714D01*
X105042858Y-102138095D01*
X105233334Y-102090476D01*
X105471429Y-102090476D01*
X105661905Y-102138095D01*
X105757143Y-102185714D01*
X105804762Y-102233333D01*
X105852381Y-102328571D01*
X105852381Y-102423809D01*
X105804762Y-102519047D01*
X105757143Y-102566666D01*
X105661905Y-102614285D01*
X105471429Y-102661904D01*
X105233334Y-102661904D01*
X105042858Y-102614285D01*
X104947620Y-102566666D01*
X104900001Y-102519047D01*
X104852381Y-102423809D01*
X104852381Y-101471428D02*
X104852381Y-101376190D01*
X104900001Y-101280952D01*
X104947620Y-101233333D01*
X105042858Y-101185714D01*
X105233334Y-101138095D01*
X105471429Y-101138095D01*
X105661905Y-101185714D01*
X105757143Y-101233333D01*
X105804762Y-101280952D01*
X105852381Y-101376190D01*
X105852381Y-101471428D01*
X105804762Y-101566666D01*
X105757143Y-101614285D01*
X105661905Y-101661904D01*
X105471429Y-101709523D01*
X105233334Y-101709523D01*
X105042858Y-101661904D01*
X104947620Y-101614285D01*
X104900001Y-101566666D01*
X104852381Y-101471428D01*
X104852381Y-100233333D02*
X104852381Y-100709523D01*
X105328572Y-100757142D01*
X105280953Y-100709523D01*
X105233334Y-100614285D01*
X105233334Y-100376190D01*
X105280953Y-100280952D01*
X105328572Y-100233333D01*
X105423810Y-100185714D01*
X105661905Y-100185714D01*
X105757143Y-100233333D01*
X105804762Y-100280952D01*
X105852381Y-100376190D01*
X105852381Y-100614285D01*
X105804762Y-100709523D01*
X105757143Y-100757142D01*
X105852381Y-99757142D02*
X104852381Y-99757142D01*
X105566667Y-99423809D01*
X104852381Y-99090476D01*
X105852381Y-99090476D01*
%TO.C,R25*%
X153822380Y-37562857D02*
X153346190Y-37896190D01*
X153822380Y-38134285D02*
X152822380Y-38134285D01*
X152822380Y-37753333D01*
X152870000Y-37658095D01*
X152917619Y-37610476D01*
X153012857Y-37562857D01*
X153155714Y-37562857D01*
X153250952Y-37610476D01*
X153298571Y-37658095D01*
X153346190Y-37753333D01*
X153346190Y-38134285D01*
X152917619Y-37181904D02*
X152870000Y-37134285D01*
X152822380Y-37039047D01*
X152822380Y-36800952D01*
X152870000Y-36705714D01*
X152917619Y-36658095D01*
X153012857Y-36610476D01*
X153108095Y-36610476D01*
X153250952Y-36658095D01*
X153822380Y-37229523D01*
X153822380Y-36610476D01*
X152822380Y-35705714D02*
X152822380Y-36181904D01*
X153298571Y-36229523D01*
X153250952Y-36181904D01*
X153203333Y-36086666D01*
X153203333Y-35848571D01*
X153250952Y-35753333D01*
X153298571Y-35705714D01*
X153393809Y-35658095D01*
X153631904Y-35658095D01*
X153727142Y-35705714D01*
X153774761Y-35753333D01*
X153822380Y-35848571D01*
X153822380Y-36086666D01*
X153774761Y-36181904D01*
X153727142Y-36229523D01*
%TO.C,BAT1*%
X34300000Y-46700000D02*
X34366666Y-46500000D01*
X34433333Y-46433333D01*
X34566666Y-46366666D01*
X34766666Y-46366666D01*
X34900000Y-46433333D01*
X34966666Y-46500000D01*
X35033333Y-46633333D01*
X35033333Y-47166666D01*
X33633333Y-47166666D01*
X33633333Y-46700000D01*
X33700000Y-46566666D01*
X33766666Y-46500000D01*
X33900000Y-46433333D01*
X34033333Y-46433333D01*
X34166666Y-46500000D01*
X34233333Y-46566666D01*
X34300000Y-46700000D01*
X34300000Y-47166666D01*
X34633333Y-45833333D02*
X34633333Y-45166666D01*
X35033333Y-45966666D02*
X33633333Y-45500000D01*
X35033333Y-45033333D01*
X33633333Y-44766666D02*
X33633333Y-43966666D01*
X35033333Y-44366666D02*
X33633333Y-44366666D01*
X35033333Y-42766666D02*
X35033333Y-43566666D01*
X35033333Y-43166666D02*
X33633333Y-43166666D01*
X33833333Y-43300000D01*
X33966666Y-43433333D01*
X34033333Y-43566666D01*
%TO.C,DA1*%
X104873333Y-84022380D02*
X104873333Y-83022380D01*
X105111428Y-83022380D01*
X105254285Y-83070000D01*
X105349523Y-83165238D01*
X105397142Y-83260476D01*
X105444761Y-83450952D01*
X105444761Y-83593809D01*
X105397142Y-83784285D01*
X105349523Y-83879523D01*
X105254285Y-83974761D01*
X105111428Y-84022380D01*
X104873333Y-84022380D01*
X105825714Y-83736666D02*
X106301904Y-83736666D01*
X105730476Y-84022380D02*
X106063809Y-83022380D01*
X106397142Y-84022380D01*
X107254285Y-84022380D02*
X106682857Y-84022380D01*
X106968571Y-84022380D02*
X106968571Y-83022380D01*
X106873333Y-83165238D01*
X106778095Y-83260476D01*
X106682857Y-83308095D01*
X101280952Y-75885714D02*
X101280952Y-76552380D01*
X100852380Y-75885714D02*
X100852380Y-76409523D01*
X100900000Y-76504761D01*
X100995238Y-76552380D01*
X101138095Y-76552380D01*
X101233333Y-76504761D01*
X101280952Y-76457142D01*
X101709523Y-76266666D02*
X102185714Y-76266666D01*
X101614285Y-76552380D02*
X101947619Y-75552380D01*
X102280952Y-76552380D01*
X102519047Y-75552380D02*
X103185714Y-75552380D01*
X102757142Y-76552380D01*
X103709523Y-75980952D02*
X103614285Y-75933333D01*
X103566666Y-75885714D01*
X103519047Y-75790476D01*
X103519047Y-75742857D01*
X103566666Y-75647619D01*
X103614285Y-75600000D01*
X103709523Y-75552380D01*
X103900000Y-75552380D01*
X103995238Y-75600000D01*
X104042857Y-75647619D01*
X104090476Y-75742857D01*
X104090476Y-75790476D01*
X104042857Y-75885714D01*
X103995238Y-75933333D01*
X103900000Y-75980952D01*
X103709523Y-75980952D01*
X103614285Y-76028571D01*
X103566666Y-76076190D01*
X103519047Y-76171428D01*
X103519047Y-76361904D01*
X103566666Y-76457142D01*
X103614285Y-76504761D01*
X103709523Y-76552380D01*
X103900000Y-76552380D01*
X103995238Y-76504761D01*
X104042857Y-76457142D01*
X104090476Y-76361904D01*
X104090476Y-76171428D01*
X104042857Y-76076190D01*
X103995238Y-76028571D01*
X103900000Y-75980952D01*
X104709523Y-75552380D02*
X104804761Y-75552380D01*
X104900000Y-75600000D01*
X104947619Y-75647619D01*
X104995238Y-75742857D01*
X105042857Y-75933333D01*
X105042857Y-76171428D01*
X104995238Y-76361904D01*
X104947619Y-76457142D01*
X104900000Y-76504761D01*
X104804761Y-76552380D01*
X104709523Y-76552380D01*
X104614285Y-76504761D01*
X104566666Y-76457142D01*
X104519047Y-76361904D01*
X104471428Y-76171428D01*
X104471428Y-75933333D01*
X104519047Y-75742857D01*
X104566666Y-75647619D01*
X104614285Y-75600000D01*
X104709523Y-75552380D01*
X105947619Y-75552380D02*
X105471428Y-75552380D01*
X105423809Y-76028571D01*
X105471428Y-75980952D01*
X105566666Y-75933333D01*
X105804761Y-75933333D01*
X105900000Y-75980952D01*
X105947619Y-76028571D01*
X105995238Y-76123809D01*
X105995238Y-76361904D01*
X105947619Y-76457142D01*
X105900000Y-76504761D01*
X105804761Y-76552380D01*
X105566666Y-76552380D01*
X105471428Y-76504761D01*
X105423809Y-76457142D01*
%TO.C,DD7*%
X94782380Y-68548095D02*
X93782380Y-68548095D01*
X93782380Y-68310000D01*
X93830000Y-68167142D01*
X93925238Y-68071904D01*
X94020476Y-68024285D01*
X94210952Y-67976666D01*
X94353809Y-67976666D01*
X94544285Y-68024285D01*
X94639523Y-68071904D01*
X94734761Y-68167142D01*
X94782380Y-68310000D01*
X94782380Y-68548095D01*
X94782380Y-67548095D02*
X93782380Y-67548095D01*
X93782380Y-67310000D01*
X93830000Y-67167142D01*
X93925238Y-67071904D01*
X94020476Y-67024285D01*
X94210952Y-66976666D01*
X94353809Y-66976666D01*
X94544285Y-67024285D01*
X94639523Y-67071904D01*
X94734761Y-67167142D01*
X94782380Y-67310000D01*
X94782380Y-67548095D01*
X93782380Y-66643333D02*
X93782380Y-65976666D01*
X94782380Y-66405238D01*
X84375714Y-68595714D02*
X85042380Y-68595714D01*
X83994761Y-68833809D02*
X84709047Y-69071904D01*
X84709047Y-68452857D01*
X85042380Y-68071904D02*
X84042380Y-68071904D01*
X85042380Y-67500476D01*
X84042380Y-67500476D01*
X84042380Y-67119523D02*
X84042380Y-66500476D01*
X84423333Y-66833809D01*
X84423333Y-66690952D01*
X84470952Y-66595714D01*
X84518571Y-66548095D01*
X84613809Y-66500476D01*
X84851904Y-66500476D01*
X84947142Y-66548095D01*
X84994761Y-66595714D01*
X85042380Y-66690952D01*
X85042380Y-66976666D01*
X84994761Y-67071904D01*
X84947142Y-67119523D01*
X84042380Y-65595714D02*
X84042380Y-66071904D01*
X84518571Y-66119523D01*
X84470952Y-66071904D01*
X84423333Y-65976666D01*
X84423333Y-65738571D01*
X84470952Y-65643333D01*
X84518571Y-65595714D01*
X84613809Y-65548095D01*
X84851904Y-65548095D01*
X84947142Y-65595714D01*
X84994761Y-65643333D01*
X85042380Y-65738571D01*
X85042380Y-65976666D01*
X84994761Y-66071904D01*
X84947142Y-66119523D01*
%TO.C,DD8*%
X93622380Y-51428095D02*
X92622380Y-51428095D01*
X92622380Y-51190000D01*
X92670000Y-51047142D01*
X92765238Y-50951904D01*
X92860476Y-50904285D01*
X93050952Y-50856666D01*
X93193809Y-50856666D01*
X93384285Y-50904285D01*
X93479523Y-50951904D01*
X93574761Y-51047142D01*
X93622380Y-51190000D01*
X93622380Y-51428095D01*
X93622380Y-50428095D02*
X92622380Y-50428095D01*
X92622380Y-50190000D01*
X92670000Y-50047142D01*
X92765238Y-49951904D01*
X92860476Y-49904285D01*
X93050952Y-49856666D01*
X93193809Y-49856666D01*
X93384285Y-49904285D01*
X93479523Y-49951904D01*
X93574761Y-50047142D01*
X93622380Y-50190000D01*
X93622380Y-50428095D01*
X93050952Y-49285238D02*
X93003333Y-49380476D01*
X92955714Y-49428095D01*
X92860476Y-49475714D01*
X92812857Y-49475714D01*
X92717619Y-49428095D01*
X92670000Y-49380476D01*
X92622380Y-49285238D01*
X92622380Y-49094761D01*
X92670000Y-48999523D01*
X92717619Y-48951904D01*
X92812857Y-48904285D01*
X92860476Y-48904285D01*
X92955714Y-48951904D01*
X93003333Y-48999523D01*
X93050952Y-49094761D01*
X93050952Y-49285238D01*
X93098571Y-49380476D01*
X93146190Y-49428095D01*
X93241428Y-49475714D01*
X93431904Y-49475714D01*
X93527142Y-49428095D01*
X93574761Y-49380476D01*
X93622380Y-49285238D01*
X93622380Y-49094761D01*
X93574761Y-48999523D01*
X93527142Y-48951904D01*
X93431904Y-48904285D01*
X93241428Y-48904285D01*
X93146190Y-48951904D01*
X93098571Y-48999523D01*
X93050952Y-49094761D01*
X87933333Y-46952380D02*
X87933333Y-45952380D01*
X88266666Y-46666666D01*
X88600000Y-45952380D01*
X88600000Y-46952380D01*
X89028571Y-46666666D02*
X89504761Y-46666666D01*
X88933333Y-46952380D02*
X89266666Y-45952380D01*
X89600000Y-46952380D01*
X89838095Y-45952380D02*
X90504761Y-46952380D01*
X90504761Y-45952380D02*
X89838095Y-46952380D01*
X91314285Y-46285714D02*
X91314285Y-46952380D01*
X91076190Y-45904761D02*
X90838095Y-46619047D01*
X91457142Y-46619047D01*
X91980952Y-46380952D02*
X91885714Y-46333333D01*
X91838095Y-46285714D01*
X91790476Y-46190476D01*
X91790476Y-46142857D01*
X91838095Y-46047619D01*
X91885714Y-46000000D01*
X91980952Y-45952380D01*
X92171428Y-45952380D01*
X92266666Y-46000000D01*
X92314285Y-46047619D01*
X92361904Y-46142857D01*
X92361904Y-46190476D01*
X92314285Y-46285714D01*
X92266666Y-46333333D01*
X92171428Y-46380952D01*
X91980952Y-46380952D01*
X91885714Y-46428571D01*
X91838095Y-46476190D01*
X91790476Y-46571428D01*
X91790476Y-46761904D01*
X91838095Y-46857142D01*
X91885714Y-46904761D01*
X91980952Y-46952380D01*
X92171428Y-46952380D01*
X92266666Y-46904761D01*
X92314285Y-46857142D01*
X92361904Y-46761904D01*
X92361904Y-46571428D01*
X92314285Y-46476190D01*
X92266666Y-46428571D01*
X92171428Y-46380952D01*
X93266666Y-45952380D02*
X92790476Y-45952380D01*
X92742857Y-46428571D01*
X92790476Y-46380952D01*
X92885714Y-46333333D01*
X93123809Y-46333333D01*
X93219047Y-46380952D01*
X93266666Y-46428571D01*
X93314285Y-46523809D01*
X93314285Y-46761904D01*
X93266666Y-46857142D01*
X93219047Y-46904761D01*
X93123809Y-46952380D01*
X92885714Y-46952380D01*
X92790476Y-46904761D01*
X92742857Y-46857142D01*
%TO.C,X5*%
X146690476Y-104474880D02*
X147357142Y-105474880D01*
X147357142Y-104474880D02*
X146690476Y-105474880D01*
X148214285Y-104474880D02*
X147738095Y-104474880D01*
X147690476Y-104951071D01*
X147738095Y-104903452D01*
X147833333Y-104855833D01*
X148071428Y-104855833D01*
X148166666Y-104903452D01*
X148214285Y-104951071D01*
X148261904Y-105046309D01*
X148261904Y-105284404D01*
X148214285Y-105379642D01*
X148166666Y-105427261D01*
X148071428Y-105474880D01*
X147833333Y-105474880D01*
X147738095Y-105427261D01*
X147690476Y-105379642D01*
%TO.C,VD1*%
X110690476Y-74952380D02*
X111023809Y-75952380D01*
X111357142Y-74952380D01*
X111690476Y-75952380D02*
X111690476Y-74952380D01*
X111928571Y-74952380D01*
X112071428Y-75000000D01*
X112166666Y-75095238D01*
X112214285Y-75190476D01*
X112261904Y-75380952D01*
X112261904Y-75523809D01*
X112214285Y-75714285D01*
X112166666Y-75809523D01*
X112071428Y-75904761D01*
X111928571Y-75952380D01*
X111690476Y-75952380D01*
X113214285Y-75952380D02*
X112642857Y-75952380D01*
X112928571Y-75952380D02*
X112928571Y-74952380D01*
X112833333Y-75095238D01*
X112738095Y-75190476D01*
X112642857Y-75238095D01*
X106252380Y-73585714D02*
X106252380Y-74157142D01*
X106252380Y-73871428D02*
X105252380Y-73871428D01*
X105395238Y-73966666D01*
X105490476Y-74061904D01*
X105538095Y-74157142D01*
X105252380Y-73252380D02*
X106252380Y-73014285D01*
X105538095Y-72823809D01*
X106252380Y-72633333D01*
X105252380Y-72395238D01*
X105252380Y-71823809D02*
X105252380Y-71728571D01*
X105300000Y-71633333D01*
X105347619Y-71585714D01*
X105442857Y-71538095D01*
X105633333Y-71490476D01*
X105871428Y-71490476D01*
X106061904Y-71538095D01*
X106157142Y-71585714D01*
X106204761Y-71633333D01*
X106252380Y-71728571D01*
X106252380Y-71823809D01*
X106204761Y-71919047D01*
X106157142Y-71966666D01*
X106061904Y-72014285D01*
X105871428Y-72061904D01*
X105633333Y-72061904D01*
X105442857Y-72014285D01*
X105347619Y-71966666D01*
X105300000Y-71919047D01*
X105252380Y-71823809D01*
X105252380Y-70871428D02*
X105252380Y-70776190D01*
X105300000Y-70680952D01*
X105347619Y-70633333D01*
X105442857Y-70585714D01*
X105633333Y-70538095D01*
X105871428Y-70538095D01*
X106061904Y-70585714D01*
X106157142Y-70633333D01*
X106204761Y-70680952D01*
X106252380Y-70776190D01*
X106252380Y-70871428D01*
X106204761Y-70966666D01*
X106157142Y-71014285D01*
X106061904Y-71061904D01*
X105871428Y-71109523D01*
X105633333Y-71109523D01*
X105442857Y-71061904D01*
X105347619Y-71014285D01*
X105300000Y-70966666D01*
X105252380Y-70871428D01*
X105252380Y-69633333D02*
X105252380Y-70109523D01*
X105728571Y-70157142D01*
X105680952Y-70109523D01*
X105633333Y-70014285D01*
X105633333Y-69776190D01*
X105680952Y-69680952D01*
X105728571Y-69633333D01*
X105823809Y-69585714D01*
X106061904Y-69585714D01*
X106157142Y-69633333D01*
X106204761Y-69680952D01*
X106252380Y-69776190D01*
X106252380Y-70014285D01*
X106204761Y-70109523D01*
X106157142Y-70157142D01*
X106252380Y-69157142D02*
X105252380Y-69157142D01*
X105966666Y-68823809D01*
X105252380Y-68490476D01*
X106252380Y-68490476D01*
%TO.C,X1*%
X158752380Y-73174523D02*
X159752380Y-72507857D01*
X158752380Y-72507857D02*
X159752380Y-73174523D01*
X159752380Y-71603095D02*
X159752380Y-72174523D01*
X159752380Y-71888809D02*
X158752380Y-71888809D01*
X158895238Y-71984047D01*
X158990476Y-72079285D01*
X159038095Y-72174523D01*
%TO.C,R23*%
X142372380Y-39192857D02*
X141896190Y-39526190D01*
X142372380Y-39764285D02*
X141372380Y-39764285D01*
X141372380Y-39383333D01*
X141420000Y-39288095D01*
X141467619Y-39240476D01*
X141562857Y-39192857D01*
X141705714Y-39192857D01*
X141800952Y-39240476D01*
X141848571Y-39288095D01*
X141896190Y-39383333D01*
X141896190Y-39764285D01*
X141467619Y-38811904D02*
X141420000Y-38764285D01*
X141372380Y-38669047D01*
X141372380Y-38430952D01*
X141420000Y-38335714D01*
X141467619Y-38288095D01*
X141562857Y-38240476D01*
X141658095Y-38240476D01*
X141800952Y-38288095D01*
X142372380Y-38859523D01*
X142372380Y-38240476D01*
X141372380Y-37907142D02*
X141372380Y-37288095D01*
X141753333Y-37621428D01*
X141753333Y-37478571D01*
X141800952Y-37383333D01*
X141848571Y-37335714D01*
X141943809Y-37288095D01*
X142181904Y-37288095D01*
X142277142Y-37335714D01*
X142324761Y-37383333D01*
X142372380Y-37478571D01*
X142372380Y-37764285D01*
X142324761Y-37859523D01*
X142277142Y-37907142D01*
%TO.C,RS2*%
X127357142Y-44352380D02*
X127023809Y-43876190D01*
X126785714Y-44352380D02*
X126785714Y-43352380D01*
X127166666Y-43352380D01*
X127261904Y-43400000D01*
X127309523Y-43447619D01*
X127357142Y-43542857D01*
X127357142Y-43685714D01*
X127309523Y-43780952D01*
X127261904Y-43828571D01*
X127166666Y-43876190D01*
X126785714Y-43876190D01*
X127738095Y-44304761D02*
X127880952Y-44352380D01*
X128119047Y-44352380D01*
X128214285Y-44304761D01*
X128261904Y-44257142D01*
X128309523Y-44161904D01*
X128309523Y-44066666D01*
X128261904Y-43971428D01*
X128214285Y-43923809D01*
X128119047Y-43876190D01*
X127928571Y-43828571D01*
X127833333Y-43780952D01*
X127785714Y-43733333D01*
X127738095Y-43638095D01*
X127738095Y-43542857D01*
X127785714Y-43447619D01*
X127833333Y-43400000D01*
X127928571Y-43352380D01*
X128166666Y-43352380D01*
X128309523Y-43400000D01*
X128690476Y-43447619D02*
X128738095Y-43400000D01*
X128833333Y-43352380D01*
X129071428Y-43352380D01*
X129166666Y-43400000D01*
X129214285Y-43447619D01*
X129261904Y-43542857D01*
X129261904Y-43638095D01*
X129214285Y-43780952D01*
X128642857Y-44352380D01*
X129261904Y-44352380D01*
%TO.C,DD1*%
X67266904Y-105782380D02*
X67266904Y-104782380D01*
X67505000Y-104782380D01*
X67647857Y-104830000D01*
X67743095Y-104925238D01*
X67790714Y-105020476D01*
X67838333Y-105210952D01*
X67838333Y-105353809D01*
X67790714Y-105544285D01*
X67743095Y-105639523D01*
X67647857Y-105734761D01*
X67505000Y-105782380D01*
X67266904Y-105782380D01*
X68266904Y-105782380D02*
X68266904Y-104782380D01*
X68505000Y-104782380D01*
X68647857Y-104830000D01*
X68743095Y-104925238D01*
X68790714Y-105020476D01*
X68838333Y-105210952D01*
X68838333Y-105353809D01*
X68790714Y-105544285D01*
X68743095Y-105639523D01*
X68647857Y-105734761D01*
X68505000Y-105782380D01*
X68266904Y-105782380D01*
X69790714Y-105782380D02*
X69219285Y-105782380D01*
X69505000Y-105782380D02*
X69505000Y-104782380D01*
X69409761Y-104925238D01*
X69314523Y-105020476D01*
X69219285Y-105068095D01*
%TO.C,R16*%
X52437142Y-101952380D02*
X52103809Y-101476190D01*
X51865714Y-101952380D02*
X51865714Y-100952380D01*
X52246666Y-100952380D01*
X52341904Y-101000000D01*
X52389523Y-101047619D01*
X52437142Y-101142857D01*
X52437142Y-101285714D01*
X52389523Y-101380952D01*
X52341904Y-101428571D01*
X52246666Y-101476190D01*
X51865714Y-101476190D01*
X53389523Y-101952380D02*
X52818095Y-101952380D01*
X53103809Y-101952380D02*
X53103809Y-100952380D01*
X53008571Y-101095238D01*
X52913333Y-101190476D01*
X52818095Y-101238095D01*
X54246666Y-100952380D02*
X54056190Y-100952380D01*
X53960952Y-101000000D01*
X53913333Y-101047619D01*
X53818095Y-101190476D01*
X53770476Y-101380952D01*
X53770476Y-101761904D01*
X53818095Y-101857142D01*
X53865714Y-101904761D01*
X53960952Y-101952380D01*
X54151428Y-101952380D01*
X54246666Y-101904761D01*
X54294285Y-101857142D01*
X54341904Y-101761904D01*
X54341904Y-101523809D01*
X54294285Y-101428571D01*
X54246666Y-101380952D01*
X54151428Y-101333333D01*
X53960952Y-101333333D01*
X53865714Y-101380952D01*
X53818095Y-101428571D01*
X53770476Y-101523809D01*
%TO.C,X2*%
X77512380Y-98329523D02*
X78512380Y-97662857D01*
X77512380Y-97662857D02*
X78512380Y-98329523D01*
X77607619Y-97329523D02*
X77560000Y-97281904D01*
X77512380Y-97186666D01*
X77512380Y-96948571D01*
X77560000Y-96853333D01*
X77607619Y-96805714D01*
X77702857Y-96758095D01*
X77798095Y-96758095D01*
X77940952Y-96805714D01*
X78512380Y-97377142D01*
X78512380Y-96758095D01*
%TO.C,R26*%
X136322380Y-37562857D02*
X135846190Y-37896190D01*
X136322380Y-38134285D02*
X135322380Y-38134285D01*
X135322380Y-37753333D01*
X135370000Y-37658095D01*
X135417619Y-37610476D01*
X135512857Y-37562857D01*
X135655714Y-37562857D01*
X135750952Y-37610476D01*
X135798571Y-37658095D01*
X135846190Y-37753333D01*
X135846190Y-38134285D01*
X135417619Y-37181904D02*
X135370000Y-37134285D01*
X135322380Y-37039047D01*
X135322380Y-36800952D01*
X135370000Y-36705714D01*
X135417619Y-36658095D01*
X135512857Y-36610476D01*
X135608095Y-36610476D01*
X135750952Y-36658095D01*
X136322380Y-37229523D01*
X136322380Y-36610476D01*
X135322380Y-35753333D02*
X135322380Y-35943809D01*
X135370000Y-36039047D01*
X135417619Y-36086666D01*
X135560476Y-36181904D01*
X135750952Y-36229523D01*
X136131904Y-36229523D01*
X136227142Y-36181904D01*
X136274761Y-36134285D01*
X136322380Y-36039047D01*
X136322380Y-35848571D01*
X136274761Y-35753333D01*
X136227142Y-35705714D01*
X136131904Y-35658095D01*
X135893809Y-35658095D01*
X135798571Y-35705714D01*
X135750952Y-35753333D01*
X135703333Y-35848571D01*
X135703333Y-36039047D01*
X135750952Y-36134285D01*
X135798571Y-36181904D01*
X135893809Y-36229523D01*
%TO.C,DD5*%
X98651904Y-62542380D02*
X98651904Y-61542380D01*
X98890000Y-61542380D01*
X99032857Y-61590000D01*
X99128095Y-61685238D01*
X99175714Y-61780476D01*
X99223333Y-61970952D01*
X99223333Y-62113809D01*
X99175714Y-62304285D01*
X99128095Y-62399523D01*
X99032857Y-62494761D01*
X98890000Y-62542380D01*
X98651904Y-62542380D01*
X99651904Y-62542380D02*
X99651904Y-61542380D01*
X99890000Y-61542380D01*
X100032857Y-61590000D01*
X100128095Y-61685238D01*
X100175714Y-61780476D01*
X100223333Y-61970952D01*
X100223333Y-62113809D01*
X100175714Y-62304285D01*
X100128095Y-62399523D01*
X100032857Y-62494761D01*
X99890000Y-62542380D01*
X99651904Y-62542380D01*
X101128095Y-61542380D02*
X100651904Y-61542380D01*
X100604285Y-62018571D01*
X100651904Y-61970952D01*
X100747142Y-61923333D01*
X100985238Y-61923333D01*
X101080476Y-61970952D01*
X101128095Y-62018571D01*
X101175714Y-62113809D01*
X101175714Y-62351904D01*
X101128095Y-62447142D01*
X101080476Y-62494761D01*
X100985238Y-62542380D01*
X100747142Y-62542380D01*
X100651904Y-62494761D01*
X100604285Y-62447142D01*
X98604285Y-71615714D02*
X98604285Y-72282380D01*
X98366190Y-71234761D02*
X98128095Y-71949047D01*
X98747142Y-71949047D01*
X99128095Y-72282380D02*
X99128095Y-71282380D01*
X99699523Y-72282380D01*
X99699523Y-71282380D01*
X100080476Y-71282380D02*
X100699523Y-71282380D01*
X100366190Y-71663333D01*
X100509047Y-71663333D01*
X100604285Y-71710952D01*
X100651904Y-71758571D01*
X100699523Y-71853809D01*
X100699523Y-72091904D01*
X100651904Y-72187142D01*
X100604285Y-72234761D01*
X100509047Y-72282380D01*
X100223333Y-72282380D01*
X100128095Y-72234761D01*
X100080476Y-72187142D01*
X101604285Y-71282380D02*
X101128095Y-71282380D01*
X101080476Y-71758571D01*
X101128095Y-71710952D01*
X101223333Y-71663333D01*
X101461428Y-71663333D01*
X101556666Y-71710952D01*
X101604285Y-71758571D01*
X101651904Y-71853809D01*
X101651904Y-72091904D01*
X101604285Y-72187142D01*
X101556666Y-72234761D01*
X101461428Y-72282380D01*
X101223333Y-72282380D01*
X101128095Y-72234761D01*
X101080476Y-72187142D01*
%TO.C,T1*%
X133952380Y-91811904D02*
X133952380Y-91240476D01*
X134952380Y-91526190D02*
X133952380Y-91526190D01*
X134952380Y-90383333D02*
X134952380Y-90954761D01*
X134952380Y-90669047D02*
X133952380Y-90669047D01*
X134095238Y-90764285D01*
X134190476Y-90859523D01*
X134238095Y-90954761D01*
X118952380Y-96383333D02*
X118952380Y-95716666D01*
X119952380Y-96145238D01*
X118952380Y-100859523D02*
X118952380Y-101050000D01*
X119000000Y-101145238D01*
X119047619Y-101192857D01*
X119190476Y-101288095D01*
X119380952Y-101335714D01*
X119761904Y-101335714D01*
X119857142Y-101288095D01*
X119904761Y-101240476D01*
X119952380Y-101145238D01*
X119952380Y-100954761D01*
X119904761Y-100859523D01*
X119857142Y-100811904D01*
X119761904Y-100764285D01*
X119523809Y-100764285D01*
X119428571Y-100811904D01*
X119380952Y-100859523D01*
X119333333Y-100954761D01*
X119333333Y-101145238D01*
X119380952Y-101240476D01*
X119428571Y-101288095D01*
X119523809Y-101335714D01*
X119952380Y-86240476D02*
X119952380Y-86050000D01*
X119904761Y-85954761D01*
X119857142Y-85907142D01*
X119714285Y-85811904D01*
X119523809Y-85764285D01*
X119142857Y-85764285D01*
X119047619Y-85811904D01*
X119000000Y-85859523D01*
X118952380Y-85954761D01*
X118952380Y-86145238D01*
X119000000Y-86240476D01*
X119047619Y-86288095D01*
X119142857Y-86335714D01*
X119380952Y-86335714D01*
X119476190Y-86288095D01*
X119523809Y-86240476D01*
X119571428Y-86145238D01*
X119571428Y-85954761D01*
X119523809Y-85859523D01*
X119476190Y-85811904D01*
X119380952Y-85764285D01*
X151452380Y-100811904D02*
X151452380Y-101288095D01*
X151928571Y-101335714D01*
X151880952Y-101288095D01*
X151833333Y-101192857D01*
X151833333Y-100954761D01*
X151880952Y-100859523D01*
X151928571Y-100811904D01*
X152023809Y-100764285D01*
X152261904Y-100764285D01*
X152357142Y-100811904D01*
X152404761Y-100859523D01*
X152452380Y-100954761D01*
X152452380Y-101192857D01*
X152404761Y-101288095D01*
X152357142Y-101335714D01*
X119380952Y-91145238D02*
X119333333Y-91240476D01*
X119285714Y-91288095D01*
X119190476Y-91335714D01*
X119142857Y-91335714D01*
X119047619Y-91288095D01*
X119000000Y-91240476D01*
X118952380Y-91145238D01*
X118952380Y-90954761D01*
X119000000Y-90859523D01*
X119047619Y-90811904D01*
X119142857Y-90764285D01*
X119190476Y-90764285D01*
X119285714Y-90811904D01*
X119333333Y-90859523D01*
X119380952Y-90954761D01*
X119380952Y-91145238D01*
X119428571Y-91240476D01*
X119476190Y-91288095D01*
X119571428Y-91335714D01*
X119761904Y-91335714D01*
X119857142Y-91288095D01*
X119904761Y-91240476D01*
X119952380Y-91145238D01*
X119952380Y-90954761D01*
X119904761Y-90859523D01*
X119857142Y-90811904D01*
X119761904Y-90764285D01*
X119571428Y-90764285D01*
X119476190Y-90811904D01*
X119428571Y-90859523D01*
X119380952Y-90954761D01*
X151547619Y-86335714D02*
X151500000Y-86288095D01*
X151452380Y-86192857D01*
X151452380Y-85954761D01*
X151500000Y-85859523D01*
X151547619Y-85811904D01*
X151642857Y-85764285D01*
X151738095Y-85764285D01*
X151880952Y-85811904D01*
X152452380Y-86383333D01*
X152452380Y-85764285D01*
X151452380Y-91383333D02*
X151452380Y-90764285D01*
X151833333Y-91097619D01*
X151833333Y-90954761D01*
X151880952Y-90859523D01*
X151928571Y-90811904D01*
X152023809Y-90764285D01*
X152261904Y-90764285D01*
X152357142Y-90811904D01*
X152404761Y-90859523D01*
X152452380Y-90954761D01*
X152452380Y-91240476D01*
X152404761Y-91335714D01*
X152357142Y-91383333D01*
X119952380Y-81240476D02*
X119952380Y-81811904D01*
X119952380Y-81526190D02*
X118952380Y-81526190D01*
X119095238Y-81621428D01*
X119190476Y-81716666D01*
X119238095Y-81811904D01*
X118952380Y-80621428D02*
X118952380Y-80526190D01*
X119000000Y-80430952D01*
X119047619Y-80383333D01*
X119142857Y-80335714D01*
X119333333Y-80288095D01*
X119571428Y-80288095D01*
X119761904Y-80335714D01*
X119857142Y-80383333D01*
X119904761Y-80430952D01*
X119952380Y-80526190D01*
X119952380Y-80621428D01*
X119904761Y-80716666D01*
X119857142Y-80764285D01*
X119761904Y-80811904D01*
X119571428Y-80859523D01*
X119333333Y-80859523D01*
X119142857Y-80811904D01*
X119047619Y-80764285D01*
X119000000Y-80716666D01*
X118952380Y-80621428D01*
X151785714Y-95859523D02*
X152452380Y-95859523D01*
X151404761Y-96097619D02*
X152119047Y-96335714D01*
X152119047Y-95716666D01*
X152452380Y-80764285D02*
X152452380Y-81335714D01*
X152452380Y-81050000D02*
X151452380Y-81050000D01*
X151595238Y-81145238D01*
X151690476Y-81240476D01*
X151738095Y-81335714D01*
%TO.C,RS1*%
X144857142Y-44352380D02*
X144523809Y-43876190D01*
X144285714Y-44352380D02*
X144285714Y-43352380D01*
X144666666Y-43352380D01*
X144761904Y-43400000D01*
X144809523Y-43447619D01*
X144857142Y-43542857D01*
X144857142Y-43685714D01*
X144809523Y-43780952D01*
X144761904Y-43828571D01*
X144666666Y-43876190D01*
X144285714Y-43876190D01*
X145238095Y-44304761D02*
X145380952Y-44352380D01*
X145619047Y-44352380D01*
X145714285Y-44304761D01*
X145761904Y-44257142D01*
X145809523Y-44161904D01*
X145809523Y-44066666D01*
X145761904Y-43971428D01*
X145714285Y-43923809D01*
X145619047Y-43876190D01*
X145428571Y-43828571D01*
X145333333Y-43780952D01*
X145285714Y-43733333D01*
X145238095Y-43638095D01*
X145238095Y-43542857D01*
X145285714Y-43447619D01*
X145333333Y-43400000D01*
X145428571Y-43352380D01*
X145666666Y-43352380D01*
X145809523Y-43400000D01*
X146761904Y-44352380D02*
X146190476Y-44352380D01*
X146476190Y-44352380D02*
X146476190Y-43352380D01*
X146380952Y-43495238D01*
X146285714Y-43590476D01*
X146190476Y-43638095D01*
%TO.C,R22*%
X52437142Y-80952380D02*
X52103809Y-80476190D01*
X51865714Y-80952380D02*
X51865714Y-79952380D01*
X52246666Y-79952380D01*
X52341904Y-80000000D01*
X52389523Y-80047619D01*
X52437142Y-80142857D01*
X52437142Y-80285714D01*
X52389523Y-80380952D01*
X52341904Y-80428571D01*
X52246666Y-80476190D01*
X51865714Y-80476190D01*
X52818095Y-80047619D02*
X52865714Y-80000000D01*
X52960952Y-79952380D01*
X53199047Y-79952380D01*
X53294285Y-80000000D01*
X53341904Y-80047619D01*
X53389523Y-80142857D01*
X53389523Y-80238095D01*
X53341904Y-80380952D01*
X52770476Y-80952380D01*
X53389523Y-80952380D01*
X53770476Y-80047619D02*
X53818095Y-80000000D01*
X53913333Y-79952380D01*
X54151428Y-79952380D01*
X54246666Y-80000000D01*
X54294285Y-80047619D01*
X54341904Y-80142857D01*
X54341904Y-80238095D01*
X54294285Y-80380952D01*
X53722857Y-80952380D01*
X54341904Y-80952380D01*
%TO.C,DA3*%
X107333333Y-48492380D02*
X107333333Y-47492380D01*
X107571428Y-47492380D01*
X107714285Y-47540000D01*
X107809523Y-47635238D01*
X107857142Y-47730476D01*
X107904761Y-47920952D01*
X107904761Y-48063809D01*
X107857142Y-48254285D01*
X107809523Y-48349523D01*
X107714285Y-48444761D01*
X107571428Y-48492380D01*
X107333333Y-48492380D01*
X108285714Y-48206666D02*
X108761904Y-48206666D01*
X108190476Y-48492380D02*
X108523809Y-47492380D01*
X108857142Y-48492380D01*
X109095238Y-47492380D02*
X109714285Y-47492380D01*
X109380952Y-47873333D01*
X109523809Y-47873333D01*
X109619047Y-47920952D01*
X109666666Y-47968571D01*
X109714285Y-48063809D01*
X109714285Y-48301904D01*
X109666666Y-48397142D01*
X109619047Y-48444761D01*
X109523809Y-48492380D01*
X109238095Y-48492380D01*
X109142857Y-48444761D01*
X109095238Y-48397142D01*
X106328571Y-46652380D02*
X105852380Y-46652380D01*
X105852380Y-45652380D01*
X106661904Y-46652380D02*
X106661904Y-45652380D01*
X106995238Y-46366666D01*
X107328571Y-45652380D01*
X107328571Y-46652380D01*
X107709523Y-45652380D02*
X108376190Y-45652380D01*
X107947619Y-46652380D01*
X108900000Y-46080952D02*
X108804761Y-46033333D01*
X108757142Y-45985714D01*
X108709523Y-45890476D01*
X108709523Y-45842857D01*
X108757142Y-45747619D01*
X108804761Y-45700000D01*
X108900000Y-45652380D01*
X109090476Y-45652380D01*
X109185714Y-45700000D01*
X109233333Y-45747619D01*
X109280952Y-45842857D01*
X109280952Y-45890476D01*
X109233333Y-45985714D01*
X109185714Y-46033333D01*
X109090476Y-46080952D01*
X108900000Y-46080952D01*
X108804761Y-46128571D01*
X108757142Y-46176190D01*
X108709523Y-46271428D01*
X108709523Y-46461904D01*
X108757142Y-46557142D01*
X108804761Y-46604761D01*
X108900000Y-46652380D01*
X109090476Y-46652380D01*
X109185714Y-46604761D01*
X109233333Y-46557142D01*
X109280952Y-46461904D01*
X109280952Y-46271428D01*
X109233333Y-46176190D01*
X109185714Y-46128571D01*
X109090476Y-46080952D01*
X110185714Y-46652380D02*
X109709523Y-46652380D01*
X109709523Y-45652380D01*
X110709523Y-45652380D02*
X110804761Y-45652380D01*
X110900000Y-45700000D01*
X110947619Y-45747619D01*
X110995238Y-45842857D01*
X111042857Y-46033333D01*
X111042857Y-46271428D01*
X110995238Y-46461904D01*
X110947619Y-46557142D01*
X110900000Y-46604761D01*
X110804761Y-46652380D01*
X110709523Y-46652380D01*
X110614285Y-46604761D01*
X110566666Y-46557142D01*
X110519047Y-46461904D01*
X110471428Y-46271428D01*
X110471428Y-46033333D01*
X110519047Y-45842857D01*
X110566666Y-45747619D01*
X110614285Y-45700000D01*
X110709523Y-45652380D01*
X111947619Y-45652380D02*
X111471428Y-45652380D01*
X111423809Y-46128571D01*
X111471428Y-46080952D01*
X111566666Y-46033333D01*
X111804761Y-46033333D01*
X111900000Y-46080952D01*
X111947619Y-46128571D01*
X111995238Y-46223809D01*
X111995238Y-46461904D01*
X111947619Y-46557142D01*
X111900000Y-46604761D01*
X111804761Y-46652380D01*
X111566666Y-46652380D01*
X111471428Y-46604761D01*
X111423809Y-46557142D01*
%TO.C,R17*%
X52437142Y-98452380D02*
X52103809Y-97976190D01*
X51865714Y-98452380D02*
X51865714Y-97452380D01*
X52246666Y-97452380D01*
X52341904Y-97500000D01*
X52389523Y-97547619D01*
X52437142Y-97642857D01*
X52437142Y-97785714D01*
X52389523Y-97880952D01*
X52341904Y-97928571D01*
X52246666Y-97976190D01*
X51865714Y-97976190D01*
X53389523Y-98452380D02*
X52818095Y-98452380D01*
X53103809Y-98452380D02*
X53103809Y-97452380D01*
X53008571Y-97595238D01*
X52913333Y-97690476D01*
X52818095Y-97738095D01*
X53722857Y-97452380D02*
X54389523Y-97452380D01*
X53960952Y-98452380D01*
%TO.C,R4*%
X97082380Y-79746666D02*
X96606190Y-80080000D01*
X97082380Y-80318095D02*
X96082380Y-80318095D01*
X96082380Y-79937142D01*
X96130000Y-79841904D01*
X96177619Y-79794285D01*
X96272857Y-79746666D01*
X96415714Y-79746666D01*
X96510952Y-79794285D01*
X96558571Y-79841904D01*
X96606190Y-79937142D01*
X96606190Y-80318095D01*
X96415714Y-78889523D02*
X97082380Y-78889523D01*
X96034761Y-79127619D02*
X96749047Y-79365714D01*
X96749047Y-78746666D01*
%TO.C,R5*%
X90822380Y-79746666D02*
X90346190Y-80080000D01*
X90822380Y-80318095D02*
X89822380Y-80318095D01*
X89822380Y-79937142D01*
X89870000Y-79841904D01*
X89917619Y-79794285D01*
X90012857Y-79746666D01*
X90155714Y-79746666D01*
X90250952Y-79794285D01*
X90298571Y-79841904D01*
X90346190Y-79937142D01*
X90346190Y-80318095D01*
X89822380Y-78841904D02*
X89822380Y-79318095D01*
X90298571Y-79365714D01*
X90250952Y-79318095D01*
X90203333Y-79222857D01*
X90203333Y-78984761D01*
X90250952Y-78889523D01*
X90298571Y-78841904D01*
X90393809Y-78794285D01*
X90631904Y-78794285D01*
X90727142Y-78841904D01*
X90774761Y-78889523D01*
X90822380Y-78984761D01*
X90822380Y-79222857D01*
X90774761Y-79318095D01*
X90727142Y-79365714D01*
%TO.C,F1*%
X156428571Y-93883333D02*
X156428571Y-94216666D01*
X156952380Y-94216666D02*
X155952380Y-94216666D01*
X155952380Y-93740476D01*
X156952380Y-92835714D02*
X156952380Y-93407142D01*
X156952380Y-93121428D02*
X155952380Y-93121428D01*
X156095238Y-93216666D01*
X156190476Y-93311904D01*
X156238095Y-93407142D01*
X155952380Y-91316666D02*
X155952380Y-91221428D01*
X156000000Y-91126190D01*
X156047619Y-91078571D01*
X156142857Y-91030952D01*
X156333333Y-90983333D01*
X156571428Y-90983333D01*
X156761904Y-91030952D01*
X156857142Y-91078571D01*
X156904761Y-91126190D01*
X156952380Y-91221428D01*
X156952380Y-91316666D01*
X156904761Y-91411904D01*
X156857142Y-91459523D01*
X156761904Y-91507142D01*
X156571428Y-91554761D01*
X156333333Y-91554761D01*
X156142857Y-91507142D01*
X156047619Y-91459523D01*
X156000000Y-91411904D01*
X155952380Y-91316666D01*
X156904761Y-90507142D02*
X156952380Y-90507142D01*
X157047619Y-90554761D01*
X157095238Y-90602380D01*
X156047619Y-90126190D02*
X156000000Y-90078571D01*
X155952380Y-89983333D01*
X155952380Y-89745238D01*
X156000000Y-89650000D01*
X156047619Y-89602380D01*
X156142857Y-89554761D01*
X156238095Y-89554761D01*
X156380952Y-89602380D01*
X156952380Y-90173809D01*
X156952380Y-89554761D01*
X155952380Y-88650000D02*
X155952380Y-89126190D01*
X156428571Y-89173809D01*
X156380952Y-89126190D01*
X156333333Y-89030952D01*
X156333333Y-88792857D01*
X156380952Y-88697619D01*
X156428571Y-88650000D01*
X156523809Y-88602380D01*
X156761904Y-88602380D01*
X156857142Y-88650000D01*
X156904761Y-88697619D01*
X156952380Y-88792857D01*
X156952380Y-89030952D01*
X156904761Y-89126190D01*
X156857142Y-89173809D01*
X156666666Y-88221428D02*
X156666666Y-87745238D01*
X156952380Y-88316666D02*
X155952380Y-87983333D01*
X156952380Y-87650000D01*
%TO.C,X4*%
X36590476Y-56352380D02*
X37257142Y-57352380D01*
X37257142Y-56352380D02*
X36590476Y-57352380D01*
X38066666Y-56685714D02*
X38066666Y-57352380D01*
X37828571Y-56304761D02*
X37590476Y-57019047D01*
X38209523Y-57019047D01*
%TO.C,DD2*%
X98451904Y-87622380D02*
X98451904Y-86622380D01*
X98690000Y-86622380D01*
X98832857Y-86670000D01*
X98928095Y-86765238D01*
X98975714Y-86860476D01*
X99023333Y-87050952D01*
X99023333Y-87193809D01*
X98975714Y-87384285D01*
X98928095Y-87479523D01*
X98832857Y-87574761D01*
X98690000Y-87622380D01*
X98451904Y-87622380D01*
X99451904Y-87622380D02*
X99451904Y-86622380D01*
X99690000Y-86622380D01*
X99832857Y-86670000D01*
X99928095Y-86765238D01*
X99975714Y-86860476D01*
X100023333Y-87050952D01*
X100023333Y-87193809D01*
X99975714Y-87384285D01*
X99928095Y-87479523D01*
X99832857Y-87574761D01*
X99690000Y-87622380D01*
X99451904Y-87622380D01*
X100404285Y-86717619D02*
X100451904Y-86670000D01*
X100547142Y-86622380D01*
X100785238Y-86622380D01*
X100880476Y-86670000D01*
X100928095Y-86717619D01*
X100975714Y-86812857D01*
X100975714Y-86908095D01*
X100928095Y-87050952D01*
X100356666Y-87622380D01*
X100975714Y-87622380D01*
X96666190Y-98902380D02*
X97237619Y-98902380D01*
X96951904Y-99902380D02*
X96951904Y-98902380D01*
X98047142Y-99902380D02*
X97570952Y-99902380D01*
X97570952Y-98902380D01*
X98285238Y-98902380D02*
X98951904Y-98902380D01*
X98523333Y-99902380D01*
X99237619Y-98902380D02*
X99904285Y-98902380D01*
X99475714Y-99902380D01*
X100475714Y-98902380D02*
X100570952Y-98902380D01*
X100666190Y-98950000D01*
X100713809Y-98997619D01*
X100761428Y-99092857D01*
X100809047Y-99283333D01*
X100809047Y-99521428D01*
X100761428Y-99711904D01*
X100713809Y-99807142D01*
X100666190Y-99854761D01*
X100570952Y-99902380D01*
X100475714Y-99902380D01*
X100380476Y-99854761D01*
X100332857Y-99807142D01*
X100285238Y-99711904D01*
X100237619Y-99521428D01*
X100237619Y-99283333D01*
X100285238Y-99092857D01*
X100332857Y-98997619D01*
X100380476Y-98950000D01*
X100475714Y-98902380D01*
X101713809Y-98902380D02*
X101237619Y-98902380D01*
X101190000Y-99378571D01*
X101237619Y-99330952D01*
X101332857Y-99283333D01*
X101570952Y-99283333D01*
X101666190Y-99330952D01*
X101713809Y-99378571D01*
X101761428Y-99473809D01*
X101761428Y-99711904D01*
X101713809Y-99807142D01*
X101666190Y-99854761D01*
X101570952Y-99902380D01*
X101332857Y-99902380D01*
X101237619Y-99854761D01*
X101190000Y-99807142D01*
X102142380Y-99616666D02*
X102618571Y-99616666D01*
X102047142Y-99902380D02*
X102380476Y-98902380D01*
X102713809Y-99902380D01*
%TO.C,DD3*%
X72122380Y-41548095D02*
X71122380Y-41548095D01*
X71122380Y-41310000D01*
X71170000Y-41167142D01*
X71265238Y-41071904D01*
X71360476Y-41024285D01*
X71550952Y-40976666D01*
X71693809Y-40976666D01*
X71884285Y-41024285D01*
X71979523Y-41071904D01*
X72074761Y-41167142D01*
X72122380Y-41310000D01*
X72122380Y-41548095D01*
X72122380Y-40548095D02*
X71122380Y-40548095D01*
X71122380Y-40310000D01*
X71170000Y-40167142D01*
X71265238Y-40071904D01*
X71360476Y-40024285D01*
X71550952Y-39976666D01*
X71693809Y-39976666D01*
X71884285Y-40024285D01*
X71979523Y-40071904D01*
X72074761Y-40167142D01*
X72122380Y-40310000D01*
X72122380Y-40548095D01*
X71122380Y-39643333D02*
X71122380Y-39024285D01*
X71503333Y-39357619D01*
X71503333Y-39214761D01*
X71550952Y-39119523D01*
X71598571Y-39071904D01*
X71693809Y-39024285D01*
X71931904Y-39024285D01*
X72027142Y-39071904D01*
X72074761Y-39119523D01*
X72122380Y-39214761D01*
X72122380Y-39500476D01*
X72074761Y-39595714D01*
X72027142Y-39643333D01*
X74804761Y-33447619D02*
X74852380Y-33400000D01*
X74947619Y-33352380D01*
X75185714Y-33352380D01*
X75280952Y-33400000D01*
X75328571Y-33447619D01*
X75376190Y-33542857D01*
X75376190Y-33638095D01*
X75328571Y-33780952D01*
X74757142Y-34352380D01*
X75376190Y-34352380D01*
X76233333Y-33685714D02*
X76233333Y-34352380D01*
X75995238Y-33304761D02*
X75757142Y-34019047D01*
X76376190Y-34019047D01*
X77233333Y-34352380D02*
X76757142Y-34352380D01*
X76757142Y-33352380D01*
X78138095Y-34257142D02*
X78090476Y-34304761D01*
X77947619Y-34352380D01*
X77852380Y-34352380D01*
X77709523Y-34304761D01*
X77614285Y-34209523D01*
X77566666Y-34114285D01*
X77519047Y-33923809D01*
X77519047Y-33780952D01*
X77566666Y-33590476D01*
X77614285Y-33495238D01*
X77709523Y-33400000D01*
X77852380Y-33352380D01*
X77947619Y-33352380D01*
X78090476Y-33400000D01*
X78138095Y-33447619D01*
X78519047Y-33447619D02*
X78566666Y-33400000D01*
X78661904Y-33352380D01*
X78900000Y-33352380D01*
X78995238Y-33400000D01*
X79042857Y-33447619D01*
X79090476Y-33542857D01*
X79090476Y-33638095D01*
X79042857Y-33780952D01*
X78471428Y-34352380D01*
X79090476Y-34352380D01*
X79995238Y-33352380D02*
X79519047Y-33352380D01*
X79471428Y-33828571D01*
X79519047Y-33780952D01*
X79614285Y-33733333D01*
X79852380Y-33733333D01*
X79947619Y-33780952D01*
X79995238Y-33828571D01*
X80042857Y-33923809D01*
X80042857Y-34161904D01*
X79995238Y-34257142D01*
X79947619Y-34304761D01*
X79852380Y-34352380D01*
X79614285Y-34352380D01*
X79519047Y-34304761D01*
X79471428Y-34257142D01*
X80900000Y-33352380D02*
X80709523Y-33352380D01*
X80614285Y-33400000D01*
X80566666Y-33447619D01*
X80471428Y-33590476D01*
X80423809Y-33780952D01*
X80423809Y-34161904D01*
X80471428Y-34257142D01*
X80519047Y-34304761D01*
X80614285Y-34352380D01*
X80804761Y-34352380D01*
X80900000Y-34304761D01*
X80947619Y-34257142D01*
X80995238Y-34161904D01*
X80995238Y-33923809D01*
X80947619Y-33828571D01*
X80900000Y-33780952D01*
X80804761Y-33733333D01*
X80614285Y-33733333D01*
X80519047Y-33780952D01*
X80471428Y-33828571D01*
X80423809Y-33923809D01*
%TO.C,DD6*%
X85571904Y-51582380D02*
X85571904Y-50582380D01*
X85810000Y-50582380D01*
X85952857Y-50630000D01*
X86048095Y-50725238D01*
X86095714Y-50820476D01*
X86143333Y-51010952D01*
X86143333Y-51153809D01*
X86095714Y-51344285D01*
X86048095Y-51439523D01*
X85952857Y-51534761D01*
X85810000Y-51582380D01*
X85571904Y-51582380D01*
X86571904Y-51582380D02*
X86571904Y-50582380D01*
X86810000Y-50582380D01*
X86952857Y-50630000D01*
X87048095Y-50725238D01*
X87095714Y-50820476D01*
X87143333Y-51010952D01*
X87143333Y-51153809D01*
X87095714Y-51344285D01*
X87048095Y-51439523D01*
X86952857Y-51534761D01*
X86810000Y-51582380D01*
X86571904Y-51582380D01*
X88000476Y-50582380D02*
X87810000Y-50582380D01*
X87714761Y-50630000D01*
X87667142Y-50677619D01*
X87571904Y-50820476D01*
X87524285Y-51010952D01*
X87524285Y-51391904D01*
X87571904Y-51487142D01*
X87619523Y-51534761D01*
X87714761Y-51582380D01*
X87905238Y-51582380D01*
X88000476Y-51534761D01*
X88048095Y-51487142D01*
X88095714Y-51391904D01*
X88095714Y-51153809D01*
X88048095Y-51058571D01*
X88000476Y-51010952D01*
X87905238Y-50963333D01*
X87714761Y-50963333D01*
X87619523Y-51010952D01*
X87571904Y-51058571D01*
X87524285Y-51153809D01*
X85524285Y-60655714D02*
X85524285Y-61322380D01*
X85286190Y-60274761D02*
X85048095Y-60989047D01*
X85667142Y-60989047D01*
X86048095Y-61322380D02*
X86048095Y-60322380D01*
X86619523Y-61322380D01*
X86619523Y-60322380D01*
X87000476Y-60322380D02*
X87619523Y-60322380D01*
X87286190Y-60703333D01*
X87429047Y-60703333D01*
X87524285Y-60750952D01*
X87571904Y-60798571D01*
X87619523Y-60893809D01*
X87619523Y-61131904D01*
X87571904Y-61227142D01*
X87524285Y-61274761D01*
X87429047Y-61322380D01*
X87143333Y-61322380D01*
X87048095Y-61274761D01*
X87000476Y-61227142D01*
X88524285Y-60322380D02*
X88048095Y-60322380D01*
X88000476Y-60798571D01*
X88048095Y-60750952D01*
X88143333Y-60703333D01*
X88381428Y-60703333D01*
X88476666Y-60750952D01*
X88524285Y-60798571D01*
X88571904Y-60893809D01*
X88571904Y-61131904D01*
X88524285Y-61227142D01*
X88476666Y-61274761D01*
X88381428Y-61322380D01*
X88143333Y-61322380D01*
X88048095Y-61274761D01*
X88000476Y-61227142D01*
%TO.C,C9*%
X110913333Y-85607142D02*
X110865714Y-85654761D01*
X110722857Y-85702380D01*
X110627619Y-85702380D01*
X110484761Y-85654761D01*
X110389523Y-85559523D01*
X110341904Y-85464285D01*
X110294285Y-85273809D01*
X110294285Y-85130952D01*
X110341904Y-84940476D01*
X110389523Y-84845238D01*
X110484761Y-84750000D01*
X110627619Y-84702380D01*
X110722857Y-84702380D01*
X110865714Y-84750000D01*
X110913333Y-84797619D01*
X111389523Y-85702380D02*
X111580000Y-85702380D01*
X111675238Y-85654761D01*
X111722857Y-85607142D01*
X111818095Y-85464285D01*
X111865714Y-85273809D01*
X111865714Y-84892857D01*
X111818095Y-84797619D01*
X111770476Y-84750000D01*
X111675238Y-84702380D01*
X111484761Y-84702380D01*
X111389523Y-84750000D01*
X111341904Y-84797619D01*
X111294285Y-84892857D01*
X111294285Y-85130952D01*
X111341904Y-85226190D01*
X111389523Y-85273809D01*
X111484761Y-85321428D01*
X111675238Y-85321428D01*
X111770476Y-85273809D01*
X111818095Y-85226190D01*
X111865714Y-85130952D01*
%TO.C,ZQ2*%
X61116666Y-49652380D02*
X61783333Y-49652380D01*
X61116666Y-50652380D01*
X61783333Y-50652380D01*
X62830952Y-50747619D02*
X62735714Y-50700000D01*
X62640476Y-50604761D01*
X62497619Y-50461904D01*
X62402380Y-50414285D01*
X62307142Y-50414285D01*
X62354761Y-50652380D02*
X62259523Y-50604761D01*
X62164285Y-50509523D01*
X62116666Y-50319047D01*
X62116666Y-49985714D01*
X62164285Y-49795238D01*
X62259523Y-49700000D01*
X62354761Y-49652380D01*
X62545238Y-49652380D01*
X62640476Y-49700000D01*
X62735714Y-49795238D01*
X62783333Y-49985714D01*
X62783333Y-50319047D01*
X62735714Y-50509523D01*
X62640476Y-50604761D01*
X62545238Y-50652380D01*
X62354761Y-50652380D01*
X63164285Y-49747619D02*
X63211904Y-49700000D01*
X63307142Y-49652380D01*
X63545238Y-49652380D01*
X63640476Y-49700000D01*
X63688095Y-49747619D01*
X63735714Y-49842857D01*
X63735714Y-49938095D01*
X63688095Y-50080952D01*
X63116666Y-50652380D01*
X63735714Y-50652380D01*
%TO.C,R24*%
X118372380Y-39192857D02*
X117896190Y-39526190D01*
X118372380Y-39764285D02*
X117372380Y-39764285D01*
X117372380Y-39383333D01*
X117420000Y-39288095D01*
X117467619Y-39240476D01*
X117562857Y-39192857D01*
X117705714Y-39192857D01*
X117800952Y-39240476D01*
X117848571Y-39288095D01*
X117896190Y-39383333D01*
X117896190Y-39764285D01*
X117467619Y-38811904D02*
X117420000Y-38764285D01*
X117372380Y-38669047D01*
X117372380Y-38430952D01*
X117420000Y-38335714D01*
X117467619Y-38288095D01*
X117562857Y-38240476D01*
X117658095Y-38240476D01*
X117800952Y-38288095D01*
X118372380Y-38859523D01*
X118372380Y-38240476D01*
X117705714Y-37383333D02*
X118372380Y-37383333D01*
X117324761Y-37621428D02*
X118039047Y-37859523D01*
X118039047Y-37240476D01*
%TO.C,C2*%
X92457142Y-79566666D02*
X92504761Y-79614285D01*
X92552380Y-79757142D01*
X92552380Y-79852380D01*
X92504761Y-79995238D01*
X92409523Y-80090476D01*
X92314285Y-80138095D01*
X92123809Y-80185714D01*
X91980952Y-80185714D01*
X91790476Y-80138095D01*
X91695238Y-80090476D01*
X91600000Y-79995238D01*
X91552380Y-79852380D01*
X91552380Y-79757142D01*
X91600000Y-79614285D01*
X91647619Y-79566666D01*
X91647619Y-79185714D02*
X91600000Y-79138095D01*
X91552380Y-79042857D01*
X91552380Y-78804761D01*
X91600000Y-78709523D01*
X91647619Y-78661904D01*
X91742857Y-78614285D01*
X91838095Y-78614285D01*
X91980952Y-78661904D01*
X92552380Y-79233333D01*
X92552380Y-78614285D01*
%TO.C,C7*%
X111669000Y-61484000D02*
X111669000Y-60040000D01*
X112069000Y-61766000D02*
X112069000Y-60040000D01*
X111389000Y-61224000D02*
X111389000Y-56776000D01*
X112909000Y-62121000D02*
X112909000Y-60040000D01*
X113390000Y-62211000D02*
X113390000Y-60040000D01*
X113510000Y-57960000D02*
X113510000Y-55778000D01*
X112109000Y-57960000D02*
X112109000Y-56210000D01*
X111989000Y-61716000D02*
X111989000Y-60040000D01*
X111869000Y-57960000D02*
X111869000Y-56364000D01*
X112629000Y-62033000D02*
X112629000Y-60040000D01*
X112149000Y-57960000D02*
X112149000Y-56188000D01*
X111189000Y-60995000D02*
X111189000Y-57005000D01*
X112149000Y-61812000D02*
X112149000Y-60040000D01*
X113750000Y-62230000D02*
X113750000Y-55770000D01*
X111149000Y-60944000D02*
X111149000Y-57056000D01*
X113270000Y-57960000D02*
X113270000Y-55805000D01*
X112509000Y-57960000D02*
X112509000Y-56014000D01*
X113510000Y-62222000D02*
X113510000Y-60040000D01*
X113190000Y-57960000D02*
X113190000Y-55818000D01*
X110789000Y-60350000D02*
X110789000Y-57650000D01*
X112189000Y-57960000D02*
X112189000Y-56166000D01*
X112469000Y-57960000D02*
X112469000Y-56030000D01*
X111109000Y-60890000D02*
X111109000Y-57110000D01*
X112789000Y-57960000D02*
X112789000Y-55914000D01*
X112509000Y-61986000D02*
X112509000Y-60040000D01*
X111709000Y-57960000D02*
X111709000Y-56484000D01*
X112349000Y-61916000D02*
X112349000Y-60040000D01*
X112269000Y-57960000D02*
X112269000Y-56124000D01*
X111509000Y-61343000D02*
X111509000Y-60040000D01*
X111989000Y-57960000D02*
X111989000Y-56284000D01*
X113310000Y-62201000D02*
X113310000Y-60040000D01*
X112869000Y-57960000D02*
X112869000Y-55890000D01*
X112869000Y-62110000D02*
X112869000Y-60040000D01*
X112829000Y-57960000D02*
X112829000Y-55902000D01*
X113070000Y-62159000D02*
X113070000Y-60040000D01*
X116935241Y-61154000D02*
X116935241Y-60524000D01*
X111549000Y-57960000D02*
X111549000Y-56620000D01*
X110989000Y-60714000D02*
X110989000Y-57286000D01*
X112309000Y-57960000D02*
X112309000Y-56104000D01*
X111669000Y-57960000D02*
X111669000Y-56516000D01*
X112469000Y-61970000D02*
X112469000Y-60040000D01*
X110749000Y-60262000D02*
X110749000Y-57738000D01*
X111949000Y-61690000D02*
X111949000Y-60040000D01*
X113190000Y-62182000D02*
X113190000Y-60040000D01*
X111749000Y-61548000D02*
X111749000Y-60040000D01*
X111069000Y-60834000D02*
X111069000Y-57166000D01*
X111429000Y-61265000D02*
X111429000Y-56735000D01*
X112349000Y-57960000D02*
X112349000Y-56084000D01*
X112789000Y-62086000D02*
X112789000Y-60040000D01*
X110709000Y-60165000D02*
X110709000Y-57835000D01*
X110509000Y-59402000D02*
X110509000Y-58598000D01*
X112709000Y-62061000D02*
X112709000Y-60040000D01*
X112549000Y-57960000D02*
X112549000Y-55998000D01*
X111789000Y-61578000D02*
X111789000Y-60040000D01*
X112749000Y-57960000D02*
X112749000Y-55926000D01*
X111349000Y-61182000D02*
X111349000Y-56818000D01*
X110829000Y-60432000D02*
X110829000Y-57568000D01*
X111469000Y-61305000D02*
X111469000Y-60040000D01*
X111469000Y-57960000D02*
X111469000Y-56695000D01*
X113029000Y-57960000D02*
X113029000Y-55850000D01*
X111229000Y-61044000D02*
X111229000Y-56956000D01*
X111309000Y-61137000D02*
X111309000Y-56863000D01*
X117250241Y-60839000D02*
X116620241Y-60839000D01*
X111949000Y-57960000D02*
X111949000Y-56310000D01*
X113590000Y-62227000D02*
X113590000Y-55773000D01*
X112949000Y-62131000D02*
X112949000Y-60040000D01*
X111509000Y-57960000D02*
X111509000Y-56657000D01*
X111909000Y-61664000D02*
X111909000Y-60040000D01*
X113029000Y-62150000D02*
X113029000Y-60040000D01*
X110909000Y-60581000D02*
X110909000Y-57419000D01*
X112229000Y-61856000D02*
X112229000Y-60040000D01*
X111909000Y-57960000D02*
X111909000Y-56336000D01*
X111549000Y-61380000D02*
X111549000Y-60040000D01*
X112989000Y-62141000D02*
X112989000Y-60040000D01*
X110549000Y-59633000D02*
X110549000Y-58367000D01*
X112309000Y-61896000D02*
X112309000Y-60040000D01*
X112389000Y-61934000D02*
X112389000Y-60040000D01*
X112989000Y-57960000D02*
X112989000Y-55859000D01*
X113270000Y-62195000D02*
X113270000Y-60040000D01*
X113430000Y-57960000D02*
X113430000Y-55785000D01*
X112749000Y-62074000D02*
X112749000Y-60040000D01*
X113350000Y-62206000D02*
X113350000Y-60040000D01*
X112029000Y-61742000D02*
X112029000Y-60040000D01*
X111749000Y-57960000D02*
X111749000Y-56452000D01*
X113550000Y-62224000D02*
X113550000Y-55776000D01*
X112949000Y-57960000D02*
X112949000Y-55869000D01*
X113150000Y-57960000D02*
X113150000Y-55825000D01*
X111269000Y-61092000D02*
X111269000Y-56908000D01*
X113230000Y-57960000D02*
X113230000Y-55811000D01*
X113110000Y-57960000D02*
X113110000Y-55833000D01*
X110869000Y-60509000D02*
X110869000Y-57491000D01*
X112589000Y-57960000D02*
X112589000Y-55982000D01*
X111869000Y-61636000D02*
X111869000Y-60040000D01*
X113350000Y-57960000D02*
X113350000Y-55794000D01*
X112069000Y-57960000D02*
X112069000Y-56234000D01*
X113110000Y-62167000D02*
X113110000Y-60040000D01*
X110629000Y-59940000D02*
X110629000Y-58060000D01*
X112629000Y-57960000D02*
X112629000Y-55967000D01*
X113310000Y-57960000D02*
X113310000Y-55799000D01*
X110589000Y-59802000D02*
X110589000Y-58198000D01*
X112669000Y-62047000D02*
X112669000Y-60040000D01*
X112829000Y-62098000D02*
X112829000Y-60040000D01*
X112229000Y-57960000D02*
X112229000Y-56144000D01*
X111829000Y-57960000D02*
X111829000Y-56393000D01*
X111629000Y-57960000D02*
X111629000Y-56550000D01*
X113670000Y-62230000D02*
X113670000Y-55770000D01*
X112189000Y-61834000D02*
X112189000Y-60040000D01*
X112429000Y-57960000D02*
X112429000Y-56048000D01*
X113630000Y-62228000D02*
X113630000Y-55772000D01*
X112589000Y-62018000D02*
X112589000Y-60040000D01*
X113150000Y-62175000D02*
X113150000Y-60040000D01*
X112109000Y-61790000D02*
X112109000Y-60040000D01*
X113710000Y-62230000D02*
X113710000Y-55770000D01*
X111829000Y-61607000D02*
X111829000Y-60040000D01*
X112429000Y-61952000D02*
X112429000Y-60040000D01*
X112909000Y-57960000D02*
X112909000Y-55879000D01*
X112029000Y-57960000D02*
X112029000Y-56258000D01*
X111629000Y-61450000D02*
X111629000Y-60040000D01*
X113430000Y-62215000D02*
X113430000Y-60040000D01*
X111029000Y-60776000D02*
X111029000Y-57224000D01*
X111589000Y-61416000D02*
X111589000Y-60040000D01*
X112669000Y-57960000D02*
X112669000Y-55953000D01*
X112269000Y-61876000D02*
X112269000Y-60040000D01*
X112709000Y-57960000D02*
X112709000Y-55939000D01*
X112549000Y-62002000D02*
X112549000Y-60040000D01*
X110949000Y-60650000D02*
X110949000Y-57350000D01*
X113070000Y-57960000D02*
X113070000Y-55841000D01*
X110669000Y-60059000D02*
X110669000Y-57941000D01*
X113470000Y-57960000D02*
X113470000Y-55782000D01*
X113470000Y-62218000D02*
X113470000Y-60040000D01*
X112389000Y-57960000D02*
X112389000Y-56066000D01*
X111709000Y-61516000D02*
X111709000Y-60040000D01*
X111789000Y-57960000D02*
X111789000Y-56422000D01*
X113390000Y-57960000D02*
X113390000Y-55789000D01*
X111589000Y-57960000D02*
X111589000Y-56584000D01*
X113230000Y-62189000D02*
X113230000Y-60040000D01*
X117020000Y-59000000D02*
G75*
G03*
X117020000Y-59000000I-3270000J0D01*
G01*
%TO.C,R15*%
X57120000Y-105000000D02*
X56350000Y-105000000D01*
X49810000Y-106370000D02*
X56350000Y-106370000D01*
X49810000Y-103630000D02*
X49810000Y-106370000D01*
X56350000Y-103630000D02*
X49810000Y-103630000D01*
X49040000Y-105000000D02*
X49810000Y-105000000D01*
X56350000Y-106370000D02*
X56350000Y-103630000D01*
%TO.C,R19*%
X49810000Y-89630000D02*
X49810000Y-92370000D01*
X56350000Y-92370000D02*
X56350000Y-89630000D01*
X57120000Y-91000000D02*
X56350000Y-91000000D01*
X56350000Y-89630000D02*
X49810000Y-89630000D01*
X49810000Y-92370000D02*
X56350000Y-92370000D01*
X49040000Y-91000000D02*
X49810000Y-91000000D01*
%TO.C,DA2*%
X94570000Y-107150000D02*
X90970000Y-107150000D01*
X92770000Y-111600001D02*
G75*
G03*
X94608478Y-107161522I0J2600001D01*
G01*
X90931522Y-107161522D02*
G75*
G03*
X92770000Y-111600000I1838478J-1838478D01*
G01*
%TO.C,C1*%
X93930000Y-81730000D02*
X93930000Y-86670000D01*
X94245000Y-86670000D02*
X93930000Y-86670000D01*
X94245000Y-81730000D02*
X93930000Y-81730000D01*
X96670000Y-86670000D02*
X96355000Y-86670000D01*
X96670000Y-81730000D02*
X96355000Y-81730000D01*
X96670000Y-81730000D02*
X96670000Y-86670000D01*
%TO.C,R20*%
X56350000Y-88870000D02*
X56350000Y-86130000D01*
X49810000Y-86130000D02*
X49810000Y-88870000D01*
X56350000Y-86130000D02*
X49810000Y-86130000D01*
X57120000Y-87500000D02*
X56350000Y-87500000D01*
X49810000Y-88870000D02*
X56350000Y-88870000D01*
X49040000Y-87500000D02*
X49810000Y-87500000D01*
%TO.C,C10*%
X100350000Y-112097380D02*
X100350000Y-111467380D01*
X103540000Y-107952380D02*
X105695000Y-107952380D01*
X100505000Y-105871380D02*
X104495000Y-105871380D01*
X100724000Y-105711380D02*
X104276000Y-105711380D01*
X100666000Y-105751380D02*
X104334000Y-105751380D01*
X99548000Y-107111380D02*
X101460000Y-107111380D01*
X100120000Y-106231380D02*
X101460000Y-106231380D01*
X103540000Y-107311380D02*
X105533000Y-107311380D01*
X99604000Y-106991380D02*
X101460000Y-106991380D01*
X100195000Y-106151380D02*
X101460000Y-106151380D01*
X100157000Y-106191380D02*
X101460000Y-106191380D01*
X99734000Y-106751380D02*
X101460000Y-106751380D01*
X99530000Y-107151380D02*
X101460000Y-107151380D01*
X103540000Y-107431380D02*
X105574000Y-107431380D01*
X100363000Y-105991380D02*
X104637000Y-105991380D01*
X103540000Y-108032380D02*
X105706000Y-108032380D01*
X103540000Y-107511380D02*
X105598000Y-107511380D01*
X103540000Y-107191380D02*
X105486000Y-107191380D01*
X99498000Y-107231380D02*
X101460000Y-107231380D01*
X99294000Y-108032380D02*
X101460000Y-108032380D01*
X103540000Y-106951380D02*
X105376000Y-106951380D01*
X103540000Y-107391380D02*
X105561000Y-107391380D01*
X99688000Y-106831380D02*
X101460000Y-106831380D01*
X101867000Y-105231380D02*
X103133000Y-105231380D01*
X99984000Y-106391380D02*
X101460000Y-106391380D01*
X103540000Y-107471380D02*
X105586000Y-107471380D01*
X103540000Y-106431380D02*
X105048000Y-106431380D01*
X99311000Y-107912380D02*
X101460000Y-107912380D01*
X100991000Y-105551380D02*
X104009000Y-105551380D01*
X100276000Y-106071380D02*
X104724000Y-106071380D01*
X103540000Y-106231380D02*
X104880000Y-106231380D01*
X99289000Y-108072380D02*
X101460000Y-108072380D01*
X100318000Y-106031380D02*
X104682000Y-106031380D01*
X103540000Y-106511380D02*
X105107000Y-106511380D01*
X99270000Y-108432380D02*
X105730000Y-108432380D01*
X103540000Y-106271380D02*
X104916000Y-106271380D01*
X99402000Y-107511380D02*
X101460000Y-107511380D01*
X99758000Y-106711380D02*
X101460000Y-106711380D01*
X99333000Y-107792380D02*
X101460000Y-107792380D01*
X99566000Y-107071380D02*
X101460000Y-107071380D01*
X100050000Y-106311380D02*
X101460000Y-106311380D01*
X99272000Y-108312380D02*
X105728000Y-108312380D01*
X103540000Y-107631380D02*
X105631000Y-107631380D01*
X99369000Y-107631380D02*
X101460000Y-107631380D01*
X99350000Y-107711380D02*
X101460000Y-107711380D01*
X103540000Y-106791380D02*
X105290000Y-106791380D01*
X100235000Y-106111380D02*
X104765000Y-106111380D01*
X103540000Y-107151380D02*
X105470000Y-107151380D01*
X103540000Y-107591380D02*
X105621000Y-107591380D01*
X103540000Y-106151380D02*
X104805000Y-106151380D01*
X99414000Y-107471380D02*
X101460000Y-107471380D01*
X103540000Y-107111380D02*
X105452000Y-107111380D01*
X101238000Y-105431380D02*
X103762000Y-105431380D01*
X100786000Y-105671380D02*
X104214000Y-105671380D01*
X99710000Y-106791380D02*
X101460000Y-106791380D01*
X103540000Y-107832380D02*
X105675000Y-107832380D01*
X99922000Y-106471380D02*
X101460000Y-106471380D01*
X99952000Y-106431380D02*
X101460000Y-106431380D01*
X101560000Y-105311380D02*
X103440000Y-105311380D01*
X103540000Y-107671380D02*
X105641000Y-107671380D01*
X103540000Y-107271380D02*
X105518000Y-107271380D01*
X99282000Y-108152380D02*
X101460000Y-108152380D01*
X103540000Y-106351380D02*
X104984000Y-106351380D01*
X103540000Y-106471380D02*
X105078000Y-106471380D01*
X99864000Y-106551380D02*
X101460000Y-106551380D01*
X103540000Y-106751380D02*
X105266000Y-106751380D01*
X103540000Y-108072380D02*
X105711000Y-108072380D01*
X99270000Y-108392380D02*
X105730000Y-108392380D01*
X99390000Y-107551380D02*
X101460000Y-107551380D01*
X103540000Y-106551380D02*
X105136000Y-106551380D01*
X103540000Y-108152380D02*
X105718000Y-108152380D01*
X99276000Y-108232380D02*
X105724000Y-108232380D01*
X103540000Y-107792380D02*
X105667000Y-107792380D01*
X99624000Y-106951380D02*
X101460000Y-106951380D01*
X99836000Y-106591380D02*
X101460000Y-106591380D01*
X103540000Y-106191380D02*
X104843000Y-106191380D01*
X103540000Y-106311380D02*
X104950000Y-106311380D01*
X103540000Y-108112380D02*
X105715000Y-108112380D01*
X99514000Y-107191380D02*
X101460000Y-107191380D01*
X99482000Y-107271380D02*
X101460000Y-107271380D01*
X101335000Y-105391380D02*
X103665000Y-105391380D01*
X103540000Y-107992380D02*
X105701000Y-107992380D01*
X99270000Y-108352380D02*
X105730000Y-108352380D01*
X100016000Y-106351380D02*
X101460000Y-106351380D01*
X99299000Y-107992380D02*
X101460000Y-107992380D01*
X100084000Y-106271380D02*
X101460000Y-106271380D01*
X101441000Y-105351380D02*
X103559000Y-105351380D01*
X100035000Y-111782380D02*
X100665000Y-111782380D01*
X103540000Y-107551380D02*
X105610000Y-107551380D01*
X99278000Y-108192380D02*
X101460000Y-108192380D01*
X103540000Y-106871380D02*
X105334000Y-106871380D01*
X103540000Y-107071380D02*
X105434000Y-107071380D01*
X103540000Y-108192380D02*
X105722000Y-108192380D01*
X99426000Y-107431380D02*
X101460000Y-107431380D01*
X103540000Y-106711380D02*
X105242000Y-106711380D01*
X99379000Y-107591380D02*
X101460000Y-107591380D01*
X100456000Y-105911380D02*
X104544000Y-105911380D01*
X99784000Y-106671380D02*
X101460000Y-106671380D01*
X103540000Y-106991380D02*
X105396000Y-106991380D01*
X103540000Y-106831380D02*
X105312000Y-106831380D01*
X103540000Y-107351380D02*
X105547000Y-107351380D01*
X101068000Y-105511380D02*
X103932000Y-105511380D01*
X99341000Y-107752380D02*
X101460000Y-107752380D01*
X103540000Y-106631380D02*
X105190000Y-106631380D01*
X103540000Y-107031380D02*
X105416000Y-107031380D01*
X103540000Y-107711380D02*
X105650000Y-107711380D01*
X99467000Y-107311380D02*
X101460000Y-107311380D01*
X99453000Y-107351380D02*
X101460000Y-107351380D01*
X103540000Y-106911380D02*
X105356000Y-106911380D01*
X103540000Y-106591380D02*
X105164000Y-106591380D01*
X99325000Y-107832380D02*
X101460000Y-107832380D01*
X99273000Y-108272380D02*
X105727000Y-108272380D01*
X103540000Y-107231380D02*
X105502000Y-107231380D01*
X99893000Y-106511380D02*
X101460000Y-106511380D01*
X103540000Y-107912380D02*
X105689000Y-107912380D01*
X100850000Y-105631380D02*
X104150000Y-105631380D01*
X99584000Y-107031380D02*
X101460000Y-107031380D01*
X100919000Y-105591380D02*
X104081000Y-105591380D01*
X101150000Y-105471380D02*
X103850000Y-105471380D01*
X99305000Y-107952380D02*
X101460000Y-107952380D01*
X103540000Y-106671380D02*
X105216000Y-106671380D01*
X99439000Y-107391380D02*
X101460000Y-107391380D01*
X101698000Y-105271380D02*
X103302000Y-105271380D01*
X103540000Y-107752380D02*
X105659000Y-107752380D01*
X100556000Y-105831380D02*
X104444000Y-105831380D01*
X100408000Y-105951380D02*
X104592000Y-105951380D01*
X99644000Y-106911380D02*
X101460000Y-106911380D01*
X99318000Y-107872380D02*
X101460000Y-107872380D01*
X99810000Y-106631380D02*
X101460000Y-106631380D01*
X103540000Y-107872380D02*
X105682000Y-107872380D01*
X99666000Y-106871380D02*
X101460000Y-106871380D01*
X99285000Y-108112380D02*
X101460000Y-108112380D01*
X103540000Y-106391380D02*
X105016000Y-106391380D01*
X99359000Y-107671380D02*
X101460000Y-107671380D01*
X102098000Y-105191380D02*
X102902000Y-105191380D01*
X100610000Y-105791380D02*
X104390000Y-105791380D01*
X105770000Y-108432380D02*
G75*
G03*
X105770000Y-108432380I-3270000J0D01*
G01*
%TO.C,ZQ1*%
X77975000Y-69875000D02*
X77975000Y-76125000D01*
X83025000Y-69875000D02*
X83025000Y-76125000D01*
X77975000Y-76125000D02*
G75*
G03*
X83025000Y-76125000I2525000J0D01*
G01*
X83025000Y-69875000D02*
G75*
G03*
X77975000Y-69875000I-2525000J0D01*
G01*
%TO.C,R21*%
X49040000Y-84000000D02*
X49810000Y-84000000D01*
X49810000Y-85370000D02*
X56350000Y-85370000D01*
X49810000Y-82630000D02*
X49810000Y-85370000D01*
X56350000Y-82630000D02*
X49810000Y-82630000D01*
X56350000Y-85370000D02*
X56350000Y-82630000D01*
X57120000Y-84000000D02*
X56350000Y-84000000D01*
%TO.C,X3*%
X42400000Y-68160000D02*
X41900000Y-68160000D01*
X33100000Y-93840000D02*
X33100000Y-93340000D01*
X42400000Y-93840000D02*
X41900000Y-93840000D01*
X42400000Y-93840000D02*
X42400000Y-93340000D01*
X33100000Y-68160000D02*
X33600000Y-68160000D01*
X42088000Y-83660000D02*
X41072000Y-83660000D01*
X41072000Y-83660000D02*
X41072000Y-78580000D01*
X33100000Y-93840000D02*
X33600000Y-93840000D01*
X41072000Y-78580000D02*
X42088000Y-78580000D01*
X42400000Y-68160000D02*
X42400000Y-68660000D01*
X33100000Y-68160000D02*
X33100000Y-68660000D01*
%TO.C,DD4*%
X70450000Y-42960000D02*
X70450000Y-37660000D01*
X70450000Y-37660000D02*
X60170000Y-37660000D01*
X60170000Y-42960000D02*
X70450000Y-42960000D01*
X60170000Y-41310000D02*
X60170000Y-42960000D01*
X60170000Y-37660000D02*
X60170000Y-39310000D01*
X60170000Y-41310000D02*
G75*
G03*
X60170000Y-39310000I0J1000000D01*
G01*
%TO.C,R18*%
X49040000Y-94500000D02*
X49810000Y-94500000D01*
X56350000Y-93130000D02*
X49810000Y-93130000D01*
X49810000Y-93130000D02*
X49810000Y-95870000D01*
X56350000Y-95870000D02*
X56350000Y-93130000D01*
X57120000Y-94500000D02*
X56350000Y-94500000D01*
X49810000Y-95870000D02*
X56350000Y-95870000D01*
%TO.C,VD2*%
X111085305Y-97963528D02*
G75*
G03*
X107403627Y-101757538I879161J-4536472D01*
G01*
X116521133Y-101839110D02*
G75*
G03*
X112812994Y-97974517I-4556667J-660890D01*
G01*
X113025126Y-97408830D02*
G75*
G03*
X110712371Y-97452499I-1060660J-5091085D01*
G01*
X107460006Y-103480992D02*
G75*
G03*
X111292715Y-107060839I4504460J980992D01*
G01*
X112706449Y-107057901D02*
G75*
G03*
X116489949Y-103419239I-741983J4557901D01*
G01*
%TO.C,R25*%
X149630000Y-33650000D02*
X149630000Y-40190000D01*
X151000000Y-32880000D02*
X151000000Y-33650000D01*
X151000000Y-40960000D02*
X151000000Y-40190000D01*
X152370000Y-33650000D02*
X149630000Y-33650000D01*
X149630000Y-40190000D02*
X152370000Y-40190000D01*
X152370000Y-40190000D02*
X152370000Y-33650000D01*
%TO.C,BAT1*%
X47500000Y-31350000D02*
X47500000Y-30350000D01*
X51250000Y-32660000D02*
X48970000Y-32660000D01*
X43750000Y-32660000D02*
X43750000Y-35355000D01*
X47500000Y-58850000D02*
X47500000Y-57850000D01*
X51250000Y-32660000D02*
X51250000Y-35355000D01*
X43750000Y-32660000D02*
X46030000Y-32660000D01*
X47000000Y-30850000D02*
X48000000Y-30850000D01*
X43750735Y-35354738D02*
G75*
G03*
X51250000Y-35355000I3749265J-10530322D01*
G01*
%TO.C,DA1*%
X111160000Y-82570000D02*
X100920000Y-82570000D01*
X111160000Y-77929000D02*
X100920000Y-77929000D01*
X104189000Y-82570000D02*
X104189000Y-81060000D01*
X111160000Y-81060000D02*
X100920000Y-81060000D01*
X111160000Y-82570000D02*
X111160000Y-77929000D01*
X107890000Y-82570000D02*
X107890000Y-81060000D01*
X100920000Y-82570000D02*
X100920000Y-77929000D01*
%TO.C,DD7*%
X93330000Y-64660000D02*
X85590000Y-64660000D01*
X85590000Y-64660000D02*
X85590000Y-69960000D01*
X93330000Y-66310000D02*
X93330000Y-64660000D01*
X85590000Y-69960000D02*
X93330000Y-69960000D01*
X93330000Y-69960000D02*
X93330000Y-68310000D01*
X93330000Y-66310000D02*
G75*
G03*
X93330000Y-68310000I0J-1000000D01*
G01*
%TO.C,DD8*%
X94170000Y-52840000D02*
X104450000Y-52840000D01*
X94170000Y-51190000D02*
X94170000Y-52840000D01*
X104450000Y-52840000D02*
X104450000Y-47540000D01*
X104450000Y-47540000D02*
X94170000Y-47540000D01*
X94170000Y-47540000D02*
X94170000Y-49190000D01*
X94170000Y-51190000D02*
G75*
G03*
X94170000Y-49190000I0J1000000D01*
G01*
%TO.C,X5*%
X143990000Y-105312500D02*
X143690000Y-105912500D01*
X152060000Y-116832500D02*
X150560000Y-116832500D01*
X155230000Y-115032500D02*
X155230000Y-116832500D01*
X142690000Y-118332500D02*
X144690000Y-118332500D01*
X144440000Y-116832500D02*
X142940000Y-116832500D01*
X155230000Y-116832500D02*
X139770000Y-116832500D01*
X139770000Y-106112500D02*
X139770000Y-118332500D01*
X143390000Y-105312500D02*
X143990000Y-105312500D01*
X155230000Y-118332500D02*
X155230000Y-106112500D01*
X144690000Y-118332500D02*
X144440000Y-116832500D01*
X139770000Y-116832500D02*
X139770000Y-115032500D01*
X150560000Y-116832500D02*
X150310000Y-118332500D01*
X155230000Y-106112500D02*
X139770000Y-106112500D01*
X139770000Y-115032500D02*
X155230000Y-115032500D01*
X142940000Y-116832500D02*
X142690000Y-118332500D01*
X143690000Y-105912500D02*
X143390000Y-105312500D01*
X150310000Y-118332500D02*
X152310000Y-118332500D01*
X139770000Y-118332500D02*
X155230000Y-118332500D01*
X152310000Y-118332500D02*
X152060000Y-116832500D01*
%TO.C,VD1*%
X117055636Y-70560660D02*
G75*
G03*
X117011967Y-68247905I-5091085J1060660D01*
G01*
X116500938Y-68620839D02*
G75*
G03*
X112706928Y-64939161I-4536472J-879161D01*
G01*
X107406565Y-70241983D02*
G75*
G03*
X111045227Y-74025483I4557901J741983D01*
G01*
X112625356Y-74056667D02*
G75*
G03*
X116489949Y-70348528I-660890J4556667D01*
G01*
X110983474Y-64995540D02*
G75*
G03*
X107403627Y-68828249I980992J-4504460D01*
G01*
%TO.C,X1*%
X167910000Y-102955000D02*
X167910000Y-41775000D01*
X159590000Y-94925000D02*
X160190000Y-95225000D01*
X160190000Y-95225000D02*
X159590000Y-95525000D01*
X160390000Y-41775000D02*
X160390000Y-102955000D01*
X159590000Y-95525000D02*
X159590000Y-94925000D01*
X160390000Y-102955000D02*
X167910000Y-102955000D01*
X167910000Y-41775000D02*
X160390000Y-41775000D01*
%TO.C,R23*%
X137080000Y-43620000D02*
X137560000Y-43620000D01*
X137080000Y-33480000D02*
X137080000Y-43620000D01*
X137560000Y-33480000D02*
X137080000Y-33480000D01*
X140920000Y-33480000D02*
X140920000Y-43620000D01*
X140920000Y-43620000D02*
X140440000Y-43620000D01*
X140440000Y-33480000D02*
X140920000Y-33480000D01*
%TO.C,RS2*%
X119125000Y-47800000D02*
X119125000Y-46675000D01*
X135875000Y-68600000D02*
X135875000Y-69425000D01*
X119125000Y-46675000D02*
X119900000Y-46675000D01*
X119125000Y-69425000D02*
X119125000Y-68575000D01*
X135875000Y-47275000D02*
X135300000Y-46675000D01*
X135300000Y-46675000D02*
X133925000Y-46675000D01*
X135875000Y-47500000D02*
X135875000Y-47275000D01*
X135875000Y-69425000D02*
X135250000Y-69425000D01*
X119825000Y-69425000D02*
X119125000Y-69425000D01*
%TO.C,DD1*%
X62045000Y-53410000D02*
X62045000Y-104330000D01*
X74965000Y-104330000D02*
X74965000Y-53410000D01*
X62045000Y-104330000D02*
X67505000Y-104330000D01*
X74965000Y-53410000D02*
X62045000Y-53410000D01*
X69505000Y-104330000D02*
X74965000Y-104330000D01*
X69505000Y-104330000D02*
G75*
G03*
X67505000Y-104330000I-1000000J0D01*
G01*
%TO.C,R16*%
X56350000Y-102870000D02*
X56350000Y-100130000D01*
X49810000Y-102870000D02*
X56350000Y-102870000D01*
X49810000Y-100130000D02*
X49810000Y-102870000D01*
X49040000Y-101500000D02*
X49810000Y-101500000D01*
X56350000Y-100130000D02*
X49810000Y-100130000D01*
X57120000Y-101500000D02*
X56350000Y-101500000D01*
%TO.C,X2*%
X79060000Y-107220000D02*
X79560000Y-107220000D01*
X79060000Y-86620000D02*
X79560000Y-86620000D01*
X87032000Y-99580000D02*
X87032000Y-94500000D01*
X87032000Y-94500000D02*
X88048000Y-94500000D01*
X79060000Y-86620000D02*
X79060000Y-87120000D01*
X88360000Y-107220000D02*
X88360000Y-106720000D01*
X79060000Y-107220000D02*
X79060000Y-106720000D01*
X88360000Y-107220000D02*
X87860000Y-107220000D01*
X88360000Y-86620000D02*
X88360000Y-87120000D01*
X88048000Y-99580000D02*
X87032000Y-99580000D01*
X88360000Y-86620000D02*
X87860000Y-86620000D01*
%TO.C,R26*%
X134870000Y-33650000D02*
X132130000Y-33650000D01*
X132130000Y-40190000D02*
X134870000Y-40190000D01*
X133500000Y-32880000D02*
X133500000Y-33650000D01*
X134870000Y-40190000D02*
X134870000Y-33650000D01*
X132130000Y-33650000D02*
X132130000Y-40190000D01*
X133500000Y-40960000D02*
X133500000Y-40190000D01*
%TO.C,DD5*%
X98890000Y-63090000D02*
X97240000Y-63090000D01*
X97240000Y-70830000D02*
X102540000Y-70830000D01*
X102540000Y-70830000D02*
X102540000Y-63090000D01*
X102540000Y-63090000D02*
X100890000Y-63090000D01*
X97240000Y-63090000D02*
X97240000Y-70830000D01*
X98890000Y-63090000D02*
G75*
G03*
X100890000Y-63090000I1000000J0D01*
G01*
%TO.C,T1*%
X121500000Y-71050000D02*
X149500000Y-71050000D01*
X117880000Y-112170000D02*
X153120000Y-112170000D01*
X149500000Y-71050000D02*
X149500000Y-111050000D01*
X117880000Y-112170000D02*
X117880000Y-69930000D01*
X121500000Y-111050000D02*
X121500000Y-71050000D01*
X153120000Y-69930000D02*
X153120000Y-112170000D01*
X149500000Y-111050000D02*
X121500000Y-111050000D01*
X153120000Y-69930000D02*
X117880000Y-69930000D01*
%TO.C,RS1*%
X153375000Y-47275000D02*
X152800000Y-46675000D01*
X137325000Y-69425000D02*
X136625000Y-69425000D01*
X153375000Y-68600000D02*
X153375000Y-69425000D01*
X136625000Y-46675000D02*
X137400000Y-46675000D01*
X136625000Y-69425000D02*
X136625000Y-68575000D01*
X153375000Y-47500000D02*
X153375000Y-47275000D01*
X136625000Y-47800000D02*
X136625000Y-46675000D01*
X153375000Y-69425000D02*
X152750000Y-69425000D01*
X152800000Y-46675000D02*
X151425000Y-46675000D01*
%TO.C,R22*%
X49810000Y-81870000D02*
X56350000Y-81870000D01*
X49810000Y-79130000D02*
X49810000Y-81870000D01*
X49040000Y-80500000D02*
X49810000Y-80500000D01*
X56350000Y-81870000D02*
X56350000Y-79130000D01*
X56350000Y-79130000D02*
X49810000Y-79130000D01*
X57120000Y-80500000D02*
X56350000Y-80500000D01*
%TO.C,DA3*%
X106700000Y-53450000D02*
X110300000Y-53450000D01*
X110338478Y-53438478D02*
G75*
G03*
X108500000Y-49000000I-1838478J1838478D01*
G01*
X108500000Y-48999999D02*
G75*
G03*
X106661522Y-53438478I0J-2600001D01*
G01*
%TO.C,R17*%
X57120000Y-98000000D02*
X56350000Y-98000000D01*
X56350000Y-96630000D02*
X49810000Y-96630000D01*
X49810000Y-99370000D02*
X56350000Y-99370000D01*
X56350000Y-99370000D02*
X56350000Y-96630000D01*
X49040000Y-98000000D02*
X49810000Y-98000000D01*
X49810000Y-96630000D02*
X49810000Y-99370000D01*
%TO.C,R4*%
X100370000Y-82850000D02*
X100370000Y-76310000D01*
X99000000Y-75540000D02*
X99000000Y-76310000D01*
X99000000Y-83620000D02*
X99000000Y-82850000D01*
X97630000Y-82850000D02*
X100370000Y-82850000D01*
X100370000Y-76310000D02*
X97630000Y-76310000D01*
X97630000Y-76310000D02*
X97630000Y-82850000D01*
%TO.C,R5*%
X86630000Y-82850000D02*
X89370000Y-82850000D01*
X88000000Y-75540000D02*
X88000000Y-76310000D01*
X89370000Y-76310000D02*
X86630000Y-76310000D01*
X89370000Y-82850000D02*
X89370000Y-76310000D01*
X86630000Y-76310000D02*
X86630000Y-82850000D01*
X88000000Y-83620000D02*
X88000000Y-82850000D01*
%TO.C,F1*%
X159150000Y-82750000D02*
X153850000Y-82750000D01*
X159150000Y-82750000D02*
X159150000Y-98650000D01*
X153850000Y-98650000D02*
X159150000Y-98650000D01*
X153850000Y-98650000D02*
X153850000Y-82750000D01*
%TO.C,X4*%
X36400000Y-58100000D02*
X36900000Y-58100000D01*
X44040000Y-67088000D02*
X44040000Y-66072000D01*
X44040000Y-66072000D02*
X49120000Y-66072000D01*
X36400000Y-67400000D02*
X36400000Y-66900000D01*
X49120000Y-66072000D02*
X49120000Y-67088000D01*
X36400000Y-67400000D02*
X36900000Y-67400000D01*
X57000000Y-58100000D02*
X56500000Y-58100000D01*
X57000000Y-67400000D02*
X57000000Y-66900000D01*
X57000000Y-58100000D02*
X57000000Y-58600000D01*
X36400000Y-58100000D02*
X36400000Y-58600000D01*
X57000000Y-67400000D02*
X56500000Y-67400000D01*
%TO.C,DD2*%
X97040000Y-88170000D02*
X97040000Y-98450000D01*
X97040000Y-98450000D02*
X102340000Y-98450000D01*
X102340000Y-98450000D02*
X102340000Y-88170000D01*
X98690000Y-88170000D02*
X97040000Y-88170000D01*
X102340000Y-88170000D02*
X100690000Y-88170000D01*
X98690000Y-88170000D02*
G75*
G03*
X100690000Y-88170000I1000000J0D01*
G01*
%TO.C,DD3*%
X82950000Y-37660000D02*
X72670000Y-37660000D01*
X72670000Y-42960000D02*
X82950000Y-42960000D01*
X72670000Y-41310000D02*
X72670000Y-42960000D01*
X82950000Y-42960000D02*
X82950000Y-37660000D01*
X72670000Y-37660000D02*
X72670000Y-39310000D01*
X72670000Y-41310000D02*
G75*
G03*
X72670000Y-39310000I0J1000000D01*
G01*
%TO.C,DD6*%
X85810000Y-52130000D02*
X84160000Y-52130000D01*
X84160000Y-52130000D02*
X84160000Y-59870000D01*
X89460000Y-59870000D02*
X89460000Y-52130000D01*
X84160000Y-59870000D02*
X89460000Y-59870000D01*
X89460000Y-52130000D02*
X87810000Y-52130000D01*
X85810000Y-52130000D02*
G75*
G03*
X87810000Y-52130000I1000000J0D01*
G01*
%TO.C,C9*%
X112961000Y-86777000D02*
X112961000Y-90259000D01*
X113281000Y-86916000D02*
X113281000Y-90259000D01*
X112721000Y-86689000D02*
X112721000Y-90259000D01*
X113281000Y-92741000D02*
X113281000Y-96084000D01*
X115001000Y-88246000D02*
X115001000Y-94754000D01*
X112081000Y-86518000D02*
X112081000Y-96482000D01*
X112641000Y-92741000D02*
X112641000Y-96337000D01*
X115441000Y-88855000D02*
X115441000Y-94145000D01*
X112641000Y-86663000D02*
X112641000Y-90259000D01*
X115081000Y-88344000D02*
X115081000Y-94656000D01*
X114801000Y-88022000D02*
X114801000Y-90259000D01*
X112441000Y-86603000D02*
X112441000Y-90259000D01*
X113001000Y-86793000D02*
X113001000Y-90259000D01*
X115601000Y-89135000D02*
X115601000Y-93865000D01*
X113801000Y-92741000D02*
X113801000Y-95798000D01*
X114041000Y-87362000D02*
X114041000Y-90259000D01*
X112401000Y-86593000D02*
X112401000Y-90259000D01*
X114321000Y-92741000D02*
X114321000Y-95425000D01*
X114881000Y-88108000D02*
X114881000Y-94892000D01*
X113841000Y-87227000D02*
X113841000Y-90259000D01*
X115561000Y-89061000D02*
X115561000Y-93939000D01*
X114201000Y-87480000D02*
X114201000Y-90259000D01*
X113201000Y-86879000D02*
X113201000Y-90259000D01*
X112841000Y-92741000D02*
X112841000Y-96268000D01*
X114601000Y-92741000D02*
X114601000Y-95179000D01*
X113041000Y-92741000D02*
X113041000Y-96190000D01*
X114721000Y-92741000D02*
X114721000Y-95061000D01*
X112561000Y-92741000D02*
X112561000Y-96362000D01*
X114561000Y-87784000D02*
X114561000Y-90259000D01*
X111080000Y-86420000D02*
X111080000Y-96580000D01*
X114921000Y-88153000D02*
X114921000Y-94847000D01*
X114361000Y-87608000D02*
X114361000Y-90259000D01*
X115481000Y-88921000D02*
X115481000Y-94079000D01*
X115361000Y-88730000D02*
X115361000Y-94270000D01*
X115921000Y-89870000D02*
X115921000Y-93130000D01*
X112401000Y-92741000D02*
X112401000Y-96407000D01*
X112681000Y-92741000D02*
X112681000Y-96324000D01*
X115241000Y-88555000D02*
X115241000Y-94445000D01*
X114641000Y-92741000D02*
X114641000Y-95140000D01*
X111200000Y-86421000D02*
X111200000Y-96579000D01*
X111640000Y-86450000D02*
X111640000Y-96550000D01*
X113761000Y-92741000D02*
X113761000Y-95823000D01*
X114401000Y-87642000D02*
X114401000Y-90259000D01*
X113401000Y-92741000D02*
X113401000Y-96025000D01*
X114081000Y-92741000D02*
X114081000Y-95610000D01*
X112241000Y-86553000D02*
X112241000Y-96447000D01*
X115761000Y-89463000D02*
X115761000Y-93537000D01*
X113521000Y-87038000D02*
X113521000Y-90259000D01*
X114761000Y-87980000D02*
X114761000Y-90259000D01*
X114001000Y-87334000D02*
X114001000Y-90259000D01*
X111320000Y-86425000D02*
X111320000Y-96575000D01*
X112481000Y-86615000D02*
X112481000Y-90259000D01*
X113961000Y-87306000D02*
X113961000Y-90259000D01*
X114161000Y-92741000D02*
X114161000Y-95550000D01*
X111360000Y-86427000D02*
X111360000Y-96573000D01*
X113441000Y-86996000D02*
X113441000Y-90259000D01*
X113641000Y-92741000D02*
X113641000Y-95895000D01*
X113521000Y-92741000D02*
X113521000Y-95962000D01*
X114481000Y-92741000D02*
X114481000Y-95289000D01*
X112721000Y-92741000D02*
X112721000Y-96311000D01*
X113721000Y-92741000D02*
X113721000Y-95847000D01*
X114721000Y-87939000D02*
X114721000Y-90259000D01*
X114481000Y-87711000D02*
X114481000Y-90259000D01*
X115641000Y-89211000D02*
X115641000Y-93789000D01*
X111560000Y-86442000D02*
X111560000Y-96558000D01*
X114681000Y-92741000D02*
X114681000Y-95101000D01*
X113881000Y-87253000D02*
X113881000Y-90259000D01*
X112441000Y-92741000D02*
X112441000Y-96397000D01*
X112961000Y-92741000D02*
X112961000Y-96223000D01*
X111881000Y-86482000D02*
X111881000Y-96518000D01*
X112561000Y-86638000D02*
X112561000Y-90259000D01*
X112481000Y-92741000D02*
X112481000Y-96385000D01*
X111520000Y-86438000D02*
X111520000Y-96562000D01*
X113801000Y-87202000D02*
X113801000Y-90259000D01*
X113361000Y-92741000D02*
X113361000Y-96045000D01*
X112881000Y-92741000D02*
X112881000Y-96254000D01*
X112041000Y-86510000D02*
X112041000Y-96490000D01*
X113681000Y-92741000D02*
X113681000Y-95871000D01*
X114321000Y-87575000D02*
X114321000Y-90259000D01*
X112921000Y-86762000D02*
X112921000Y-90259000D01*
X111240000Y-86422000D02*
X111240000Y-96578000D01*
X112361000Y-92741000D02*
X112361000Y-96418000D01*
X115281000Y-88611000D02*
X115281000Y-94389000D01*
X114441000Y-87676000D02*
X114441000Y-90259000D01*
X114281000Y-87543000D02*
X114281000Y-90259000D01*
X113721000Y-87153000D02*
X113721000Y-90259000D01*
X114281000Y-92741000D02*
X114281000Y-95457000D01*
X113601000Y-92741000D02*
X113601000Y-95917000D01*
X112521000Y-86626000D02*
X112521000Y-90259000D01*
X115201000Y-88500000D02*
X115201000Y-94500000D01*
X113401000Y-86975000D02*
X113401000Y-90259000D01*
X114521000Y-87747000D02*
X114521000Y-90259000D01*
X114121000Y-92741000D02*
X114121000Y-95580000D01*
X113481000Y-92741000D02*
X113481000Y-95983000D01*
X111600000Y-86446000D02*
X111600000Y-96554000D01*
X111921000Y-86489000D02*
X111921000Y-96511000D01*
X112801000Y-92741000D02*
X112801000Y-96283000D01*
X114601000Y-87821000D02*
X114601000Y-90259000D01*
X111760000Y-86465000D02*
X111760000Y-96535000D01*
X115321000Y-88670000D02*
X115321000Y-94330000D01*
X113841000Y-92741000D02*
X113841000Y-95773000D01*
X113121000Y-86843000D02*
X113121000Y-90259000D01*
X111280000Y-86423000D02*
X111280000Y-96577000D01*
X111440000Y-86432000D02*
X111440000Y-96568000D01*
X113361000Y-86955000D02*
X113361000Y-90259000D01*
X111400000Y-86430000D02*
X111400000Y-96570000D01*
X112001000Y-86503000D02*
X112001000Y-96497000D01*
X112761000Y-92741000D02*
X112761000Y-96297000D01*
X114201000Y-92741000D02*
X114201000Y-95520000D01*
X114361000Y-92741000D02*
X114361000Y-95392000D01*
X111480000Y-86435000D02*
X111480000Y-96565000D01*
X112601000Y-92741000D02*
X112601000Y-96350000D01*
X113481000Y-87017000D02*
X113481000Y-90259000D01*
X112801000Y-86717000D02*
X112801000Y-90259000D01*
X115721000Y-89375000D02*
X115721000Y-93625000D01*
X114681000Y-87899000D02*
X114681000Y-90259000D01*
X113161000Y-92741000D02*
X113161000Y-96139000D01*
X113601000Y-87083000D02*
X113601000Y-90259000D01*
X113321000Y-92741000D02*
X113321000Y-96064000D01*
X112881000Y-86746000D02*
X112881000Y-90259000D01*
X114081000Y-87390000D02*
X114081000Y-90259000D01*
X114841000Y-88064000D02*
X114841000Y-94936000D01*
X113761000Y-87177000D02*
X113761000Y-90259000D01*
X115961000Y-89990000D02*
X115961000Y-93010000D01*
X111680000Y-86455000D02*
X111680000Y-96545000D01*
X105600354Y-88625000D02*
X106600354Y-88625000D01*
X115161000Y-88446000D02*
X115161000Y-94554000D01*
X113881000Y-92741000D02*
X113881000Y-95747000D01*
X112201000Y-86544000D02*
X112201000Y-96456000D01*
X113081000Y-92741000D02*
X113081000Y-96174000D01*
X112321000Y-86572000D02*
X112321000Y-96428000D01*
X114801000Y-92741000D02*
X114801000Y-94978000D01*
X114401000Y-92741000D02*
X114401000Y-95358000D01*
X112761000Y-86703000D02*
X112761000Y-90259000D01*
X114521000Y-92741000D02*
X114521000Y-95253000D01*
X116041000Y-90270000D02*
X116041000Y-92730000D01*
X114441000Y-92741000D02*
X114441000Y-95324000D01*
X113561000Y-92741000D02*
X113561000Y-95940000D01*
X113121000Y-92741000D02*
X113121000Y-96157000D01*
X113921000Y-92741000D02*
X113921000Y-95721000D01*
X112521000Y-92741000D02*
X112521000Y-96374000D01*
X113681000Y-87129000D02*
X113681000Y-90259000D01*
X113321000Y-86936000D02*
X113321000Y-90259000D01*
X115841000Y-89654000D02*
X115841000Y-93346000D01*
X111120000Y-86420000D02*
X111120000Y-96580000D01*
X113241000Y-92741000D02*
X113241000Y-96103000D01*
X113081000Y-86826000D02*
X113081000Y-90259000D01*
X111841000Y-86476000D02*
X111841000Y-96524000D01*
X115121000Y-88394000D02*
X115121000Y-94606000D01*
X112841000Y-86732000D02*
X112841000Y-90259000D01*
X111961000Y-86496000D02*
X111961000Y-96504000D01*
X114561000Y-92741000D02*
X114561000Y-95216000D01*
X115801000Y-89556000D02*
X115801000Y-93444000D01*
X116121000Y-90638000D02*
X116121000Y-92362000D01*
X113921000Y-87279000D02*
X113921000Y-90259000D01*
X114641000Y-87860000D02*
X114641000Y-90259000D01*
X115881000Y-89758000D02*
X115881000Y-93242000D01*
X113161000Y-86861000D02*
X113161000Y-90259000D01*
X113241000Y-86897000D02*
X113241000Y-90259000D01*
X115401000Y-88791000D02*
X115401000Y-94209000D01*
X113961000Y-92741000D02*
X113961000Y-95694000D01*
X114001000Y-92741000D02*
X114001000Y-95666000D01*
X113641000Y-87105000D02*
X113641000Y-90259000D01*
X113001000Y-92741000D02*
X113001000Y-96207000D01*
X111720000Y-86460000D02*
X111720000Y-96540000D01*
X113201000Y-92741000D02*
X113201000Y-96121000D01*
X114241000Y-92741000D02*
X114241000Y-95489000D01*
X112921000Y-92741000D02*
X112921000Y-96238000D01*
X114121000Y-87420000D02*
X114121000Y-90259000D01*
X111160000Y-86420000D02*
X111160000Y-96580000D01*
X116001000Y-90122000D02*
X116001000Y-92878000D01*
X113441000Y-92741000D02*
X113441000Y-96004000D01*
X116081000Y-90438000D02*
X116081000Y-92562000D01*
X112161000Y-86535000D02*
X112161000Y-96465000D01*
X106100354Y-88125000D02*
X106100354Y-89125000D01*
X114961000Y-88199000D02*
X114961000Y-94801000D01*
X114161000Y-87450000D02*
X114161000Y-90259000D01*
X112601000Y-86650000D02*
X112601000Y-90259000D01*
X113561000Y-87060000D02*
X113561000Y-90259000D01*
X115041000Y-88294000D02*
X115041000Y-94706000D01*
X112281000Y-86562000D02*
X112281000Y-96438000D01*
X114241000Y-87511000D02*
X114241000Y-90259000D01*
X115521000Y-88990000D02*
X115521000Y-94010000D01*
X116161000Y-90901000D02*
X116161000Y-92099000D01*
X112361000Y-86582000D02*
X112361000Y-90259000D01*
X114041000Y-92741000D02*
X114041000Y-95638000D01*
X112121000Y-86526000D02*
X112121000Y-96474000D01*
X111801000Y-86470000D02*
X111801000Y-96530000D01*
X115681000Y-89291000D02*
X115681000Y-93709000D01*
X112681000Y-86676000D02*
X112681000Y-90259000D01*
X113041000Y-86810000D02*
X113041000Y-90259000D01*
X114761000Y-92741000D02*
X114761000Y-95020000D01*
X116200000Y-91500000D02*
G75*
G03*
X116200000Y-91500000I-5120000J0D01*
G01*
%TO.C,ZQ2*%
X64150000Y-47500000D02*
G75*
G03*
X60750000Y-47500000I-1700000J0D01*
G01*
X60750000Y-47500000D02*
G75*
G03*
X64150000Y-47500000I1700000J0D01*
G01*
%TO.C,R24*%
X116920000Y-33480000D02*
X116920000Y-43620000D01*
X113080000Y-43620000D02*
X113560000Y-43620000D01*
X116920000Y-43620000D02*
X116440000Y-43620000D01*
X116440000Y-33480000D02*
X116920000Y-33480000D01*
X113080000Y-33480000D02*
X113080000Y-43620000D01*
X113560000Y-33480000D02*
X113080000Y-33480000D01*
%TO.C,C2*%
X93070000Y-86670000D02*
X92755000Y-86670000D01*
X93070000Y-81730000D02*
X92755000Y-81730000D01*
X90645000Y-86670000D02*
X90330000Y-86670000D01*
X93070000Y-81730000D02*
X93070000Y-86670000D01*
X90645000Y-81730000D02*
X90330000Y-81730000D01*
X90330000Y-81730000D02*
X90330000Y-86670000D01*
%TD*%
M02*
