M48
METRIC,TZ
T1C0.400
T2C0.500
T3C0.750
T4C0.800
T5C0.900
T6C1.000
T7C1.100
T8C1.170
T9C1.200
T10C1.300
T11C1.400
T12C1.500
%
G90
G05
T1
X30700Y-52600
X30700Y-62600
X30700Y-72600
X30700Y-82600
X30700Y-92600
X35311Y-97211
X37900Y-92000
X38400Y-59300
X38400Y-66300
X39908Y-101808
X43500Y-39800
X43500Y-49800
X44504Y-106404
X45200Y-71800
X45200Y-76000
X45200Y-79700
X45200Y-82300
X45200Y-85800
X45200Y-89300
X45200Y-92800
X45200Y-96300
X45200Y-99800
X45900Y-102800
X49100Y-111000
X50143Y-107543
X51500Y-39800
X51500Y-49800
X52500Y-71800
X54900Y-60600
X54900Y-62800
X54900Y-66300
X58100Y-111000
X58500Y-60900
X58500Y-66300
X60900Y-106100
X62303Y-41997
X64000Y-40300
X65697Y-38603
X66400Y-57300
X66400Y-61300
X66400Y-65300
X67100Y-111000
X67394Y-40300
X68100Y-32000
X68200Y-50000
X69900Y-81600
X69900Y-86600
X69900Y-91600
X69900Y-96600
X69900Y-101600
X70400Y-57300
X70400Y-61300
X70400Y-65300
X70800Y-107650
X72900Y-81600
X72900Y-86600
X72900Y-91600
X72900Y-96600
X72900Y-101600
X74500Y-50000
X75003Y-40303
X75100Y-32000
X76100Y-107650
X76100Y-111000
X76700Y-42000
X77800Y-103400
X78400Y-81600
X78400Y-83300
X78600Y-61300
X78600Y-65300
X78750Y-70550
X79900Y-90200
X79900Y-92750
X79900Y-95300
X79900Y-97850
X79900Y-100400
X79900Y-102950
X80500Y-73000
X82100Y-32000
X82300Y-88300
X82600Y-61300
X82600Y-65300
X84900Y-76800
X85100Y-111000
X85300Y-43500
X88200Y-65600
X89100Y-32000
X89250Y-107650
X90800Y-65600
X90950Y-48450
X93500Y-88300
X93500Y-90500
X94000Y-61300
X95900Y-43500
X95900Y-76800
X96100Y-32000
X97041Y-58259
X98800Y-90500
X100850Y-38550
X101000Y-90500
X102200Y-43500
X103100Y-32000
X103100Y-50200
X105500Y-55700
X106400Y-64400
X106400Y-67000
X106900Y-76800
X107100Y-38600
X109800Y-55700
X110100Y-32000
X111000Y-38600
X111000Y-43500
X114200Y-48700
X114200Y-53600
X114600Y-80600
X114600Y-86000
X114600Y-96700
X141600Y-42400
T2
X61500Y-47500
X63400Y-47500
T3
X91500Y-109000
X92770Y-109000
X94040Y-109000
X107230Y-51600
X108500Y-51600
X109770Y-51600
T4
X48000Y-80500
X48000Y-84000
X48000Y-87500
X48000Y-91000
X48000Y-94500
X48000Y-98000
X48000Y-101500
X48000Y-105000
X58160Y-80500
X58160Y-84000
X58160Y-87500
X58160Y-91000
X58160Y-94500
X58160Y-98000
X58160Y-101500
X58160Y-105000
X60885Y-54740
X60885Y-57280
X60885Y-59820
X60885Y-62360
X60885Y-64900
X60885Y-67440
X60885Y-69980
X60885Y-72520
X60885Y-75060
X60885Y-77600
X60885Y-80140
X60885Y-82680
X60885Y-85220
X60885Y-87760
X60885Y-90300
X60885Y-92840
X60885Y-95380
X60885Y-97920
X60885Y-100460
X60885Y-103000
X61500Y-36500
X61500Y-44120
X64040Y-36500
X64040Y-44120
X66580Y-36500
X66580Y-44120
X69120Y-36500
X69120Y-44120
X74000Y-36500
X74000Y-44120
X76125Y-54740
X76125Y-57280
X76125Y-59820
X76125Y-62360
X76125Y-64900
X76125Y-67440
X76125Y-69980
X76125Y-72520
X76125Y-75060
X76125Y-77600
X76125Y-80140
X76125Y-82680
X76125Y-85220
X76125Y-87760
X76125Y-90300
X76125Y-92840
X76125Y-95380
X76125Y-97920
X76125Y-100460
X76125Y-103000
X76540Y-36500
X76540Y-44120
X79080Y-36500
X79080Y-44120
X80500Y-70550
X80500Y-75450
X81620Y-36500
X81620Y-44120
X83000Y-53460
X83000Y-56000
X83000Y-58540
X86920Y-63500
X86920Y-71120
X88000Y-74500
X88000Y-84660
X89460Y-63500
X89460Y-71120
X90620Y-53460
X90620Y-56000
X90620Y-58540
X91700Y-81700
X91700Y-86700
X92000Y-63500
X92000Y-71120
X95300Y-81700
X95300Y-86700
X95500Y-46380
X95500Y-54000
X95880Y-89500
X95880Y-92040
X95880Y-94580
X95880Y-97120
X96080Y-64420
X96080Y-66960
X96080Y-69500
X98040Y-46380
X98040Y-54000
X99000Y-74500
X99000Y-84660
X100580Y-46380
X100580Y-54000
X102500Y-107182
X102500Y-109682
X103120Y-46380
X103120Y-54000
X103500Y-89500
X103500Y-92040
X103500Y-94580
X103500Y-97120
X103700Y-64420
X103700Y-66960
X103700Y-69500
X112500Y-59000
X115000Y-59000
X133500Y-31840
X133500Y-42000
X151000Y-31840
X151000Y-42000
T5
X123000Y-81050
X123000Y-86050
X123000Y-91050
X123000Y-96050
X123000Y-101050
X148000Y-81050
X148000Y-86050
X148000Y-91050
X148000Y-96050
X148000Y-101050
T6
X108429Y-69500
X108429Y-102500
X108580Y-91500
X111964Y-65964
X111964Y-73036
X111964Y-98964
X111964Y-106036
X113580Y-91500
X115500Y-69500
X115500Y-102500
T7
X103500Y-79300
X106040Y-79300
X108580Y-79300
T8
X47500Y-53350
T9
X36500Y-73500
X36500Y-76040
X36500Y-78580
X36500Y-81120
X36500Y-83660
X36500Y-86200
X36500Y-88740
X39040Y-73500
X39040Y-76040
X39040Y-78580
X39040Y-81120
X39040Y-83660
X39040Y-86200
X39040Y-88740
X41500Y-61500
X41500Y-64040
X44040Y-61500
X44040Y-64040
X46580Y-61500
X46580Y-64040
X49120Y-61500
X49120Y-64040
X51660Y-61500
X51660Y-64040
X82460Y-91960
X82460Y-94500
X82460Y-97040
X82460Y-99580
X82460Y-102120
X85000Y-91960
X85000Y-94500
X85000Y-97040
X85000Y-99580
X85000Y-102120
X115000Y-32200
X115000Y-44900
X139000Y-32200
X139000Y-44900
T10
X121500Y-51350
X121500Y-63550
X127500Y-49350
X133500Y-51350
X133500Y-63550
X139000Y-51350
X139000Y-63550
X145000Y-49350
X151000Y-51350
X151000Y-63550
T11
X143690Y-108223
X151310Y-108223
X162500Y-49505
X162500Y-54585
X162500Y-59665
X162500Y-64745
X162500Y-69825
X162500Y-74905
X162500Y-79985
X162500Y-85065
X162500Y-90145
X162500Y-95225
T12
X47500Y-33350
X156500Y-85000
X156500Y-96400
T0
M30
